<?xml version="1.0" encoding="utf-8"?>
<!-- Generator: Adobe Illustrator 26.1.0, SVG Export Plug-In . SVG Version: 6.00 Build 0)  -->
<svg version="1.1" xmlns="http://www.w3.org/2000/svg" xmlns:xlink="http://www.w3.org/1999/xlink" x="0px" y="0px"
	 viewBox="0 0 20 20" style="enable-background:new 0 0 20 20;" xml:space="preserve">
<style type="text/css">
	.st0{fill:#3AAA35;}
	.st1{fill:#1D1D1B;}
</style>
<g id="Слой_1">
	<g>
		<circle class="st0" cx="10" cy="10" r="9.3"/>
		<g>
			<path d="M4.8,8.1C5,7.9,5.3,7.7,5.6,7.6C6,7.4,6.3,7.4,6.7,7.4c0.4,0,0.7,0.1,1.1,0.2C8.1,7.7,8.4,8,8.7,8.2l0.9-0.8
				C9.3,7,8.8,6.7,8.3,6.5C7.8,6.3,7.3,6.2,6.7,6.2c-0.6,0-1.1,0.1-1.6,0.3C4.6,6.6,4.2,6.9,3.8,7.2C3.4,7.6,3.1,8,3,8.5
				c-0.2,0.5-0.3,1-0.3,1.5s0.1,1.1,0.3,1.5c0.2,0.5,0.5,0.9,0.8,1.2c0.4,0.3,0.8,0.6,1.3,0.8c0.5,0.2,1,0.3,1.6,0.3
				c0.6,0,1.2-0.1,1.7-0.3c0.5-0.2,0.9-0.5,1.3-0.9l-0.9-0.8c-0.3,0.3-0.6,0.5-0.9,0.7c-0.3,0.1-0.7,0.2-1.1,0.2
				c-0.4,0-0.8-0.1-1.1-0.2c-0.3-0.1-0.6-0.3-0.8-0.5c-0.2-0.2-0.4-0.5-0.6-0.8C4.1,10.7,4,10.4,4,10c0-0.4,0.1-0.7,0.2-1.1
				C4.4,8.6,4.6,8.3,4.8,8.1z"/>
			<path d="M17.3,13.7l-1.7-2.5c0,0,0.1,0,0.1,0c0.5-0.2,0.8-0.5,1.1-0.9c0.3-0.4,0.4-0.9,0.4-1.4c0-0.6-0.1-1-0.4-1.4
				c-0.3-0.4-0.6-0.7-1.1-0.9c-0.5-0.2-1-0.3-1.7-0.3H11v7.5h1.4v-2.2H14c0.1,0,0.2,0,0.3,0l1.5,2.2H17.3z M15.4,7.8
				c0.3,0.3,0.5,0.6,0.5,1.1c0,0.5-0.2,0.8-0.5,1.1c-0.3,0.3-0.8,0.4-1.4,0.4h-1.6v-3H14C14.6,7.4,15,7.6,15.4,7.8z"/>
		</g>
	</g>
</g>
<g id="Слой_2">
</g>
</svg>
