<?xml version="1.0" encoding="utf-8"?>
<!-- Generator: Adobe Illustrator 26.1.0, SVG Export Plug-In . SVG Version: 6.00 Build 0)  -->
<svg version="1.1" xmlns="http://www.w3.org/2000/svg" xmlns:xlink="http://www.w3.org/1999/xlink" x="0px" y="0px"
	 viewBox="0 0 20 20" style="enable-background:new 0 0 20 20;" xml:space="preserve">
<style type="text/css">
	.st0{fill:#3AAA35;}
	.st1{fill:#1D1D1B;}
</style>
<g id="Слой_1">
	<g>
		<circle class="st0" cx="10" cy="10" r="9.3"/>
		<ellipse class="st1" cx="10" cy="10" rx="8.2" ry="6.6"/>
		<path class="st0" d="M8.6,8.8c0,0.7-0.5,1.2-1.1,1.2H6.1C5.5,10,5,9.5,5,8.8V8.4c0-0.7,0.5-1.2,1.1-1.2h1.5c0.6,0,1.1,0.5,1.1,1.2
			V8.8z"/>
		<ellipse class="st0" cx="10" cy="12.6" rx="1.2" ry="1.3"/>
		<path class="st0" d="M14.9,8.8c0,0.7-0.5,1.2-1.1,1.2h-1.5c-0.6,0-1.1-0.5-1.1-1.2V8.4c0-0.7,0.5-1.2,1.1-1.2h1.5
			c0.6,0,1.1,0.5,1.1,1.2V8.8z"/>
	</g>
</g>
<g id="Слой_2">
</g>
</svg>
