<svg xmlns="http://www.w3.org/2000/svg" xmlns:xlink="http://www.w3.org/1999/xlink" version="1.1" style="enable-background:new 0 0 595.3 264;" xml:space="preserve" width="501.7096773796593" height="42.54838689829876"><rect id="backgroundrect" width="100%" height="100%" x="0" y="0" fill="none" stroke="none"/>
<style type="text/css">
	.st0{fill:#1D1D1B;}
	.st1{fill:#FFFFFF;}
</style>


<g class="currentLayer" style=""><title>Layer 1</title><g id="svg_19" class="" transform="">
	<g id="svg_20" transform="">
		<path class="st1" d="M70.62040394544601,13.74846076965332 c1.2000000476837158,-1.100000023841858 2.5,-2 4.099999904632568,-2.700000047683716 c1.600000023841858,-0.6000000238418579 3.299999952316284,-0.9000002145767212 5.199999809265137,-0.9000002145767212 c1.9000000953674316,0 3.5999999046325684,0.4000000059604645 5.199999809265137,1.100000023841858 c1.600000023841858,0.699999988079071 3.0999999046325684,1.7999999523162842 4.5,3.200000047683716 l4.400000095367432,-4.099999904632568 c-1.7000000476837158,-2 -3.799999952316284,-3.5 -6.199999809265137,-4.5 c-2.5,-1 -5.199999809265137,-1.5 -8.199999809265137,-1.5 c-2.799999952316284,0 -5.400000095367432,0.5 -7.699999809265137,1.399999976158142 c-2.4000000953674316,0.9000002145767212 -4.400000095367432,2.200000047683716 -6.199999809265137,3.9000000953674316 c-1.7999999523162842,1.7000000476837158 -3.0999999046325684,3.700000047683716 -4.099999904632568,5.900000095367432 c-1,2.299999952316284 -1.5,4.699999809265137 -1.5,7.5 c0,2.700000047683716 0.5,5.199999809265137 1.5,7.5 c1,2.299999952316284 2.299999952316284,4.199999809265137 4.099999904632568,5.900000095367432 c1.7000000476837158,1.7000000476837158 3.799999952316284,3 6.199999809265137,3.9000000953674316 c2.4000000953674316,0.9000002145767212 4.900000095367432,1.399999976158142 7.699999809265137,1.399999976158142 c3,0 5.800000190734863,-0.5 8.199999809265137,-1.600000023841858 c2.5,-1 4.5,-2.5999999046325684 6.199999809265137,-4.599999904632568 l-4.400000095367432,-4.099999904632568 c-1.399999976158142,1.5 -2.799999952316284,2.5 -4.5,3.200000047683716 c-1.600000023841858,0.699999988079071 -3.4000000953674316,1.100000023841858 -5.199999809265137,1.100000023841858 c-1.9000000953674316,0 -3.5999999046325684,-0.30000001192092896 -5.199999809265137,-0.9000002145767212 c-1.600000023841858,-0.6000000238418579 -2.9000000953674316,-1.5 -4.099999904632568,-2.5999999046325684 c-1.2000000476837158,-1.100000023841858 -2.0999999046325684,-2.5 -2.700000047683716,-4.099999904632568 c-0.699999988079071,-1.600000023841858 -1,-3.299999952316284 -1,-5.099999904632568 c0,-1.9000000953674316 0.30000001192092896,-3.5999999046325684 1,-5.099999904632568 C68.52040547132492,16.248458862304688 69.42040699720383,14.948458671569824 70.62040394544601,13.74846076965332 z" id="svg_21" transform=""/>
		<path class="st1" d="M120.02040547132492,14.948458671569824 c-2.200000047683716,-1.2000000476837158 -4.800000190734863,-1.7999999523162842 -7.699999809265137,-1.7999999523162842 c-2.799999952316284,0 -5.400000095367432,0.6000000238418579 -7.599999904632568,1.7999999523162842 c-2.200000047683716,1.2000000476837158 -4,2.9000000953674316 -5.199999809265137,5 c-1.2999999523162842,2.0999999046325684 -1.9000000953674316,4.599999904632568 -1.9000000953674316,7.400000095367432 c0,2.700000047683716 0.6000000238418579,5.199999809265137 1.9000000953674316,7.300000190734863 c1.2999999523162842,2.0999999046325684 3,3.799999952316284 5.300000190734863,5.099999904632568 c2.200000047683716,1.2000000476837158 4.800000190734863,1.7999999523162842 7.599999904632568,1.7999999523162842 c2.799999952316284,0 5.400000095367432,-0.6000000238418579 7.599999904632568,-1.7999999523162842 c2.299999952316284,-1.2000000476837158 4,-2.9000000953674316 5.300000190734863,-5 c1.2999999523162842,-2.0999999046325684 1.9000000953674316,-4.599999904632568 1.9000000953674316,-7.400000095367432 c0,-2.799999952316284 -0.6000000238418579,-5.300000190734863 -1.9000000953674316,-7.400000095367432 C124.02041310071945,17.848451614379883 122.22040241956711,16.148452758789062 120.02040547132492,14.948458671569824 zM119.52040547132492,31.848451614379883 c-0.699999988079071,1.2999999523162842 -1.7000000476837158,2.4000000953674316 -2.9000000953674316,3.0999999046325684 c-1.2000000476837158,0.699999988079071 -2.700000047683716,1.100000023841858 -4.300000190734863,1.100000023841858 c-1.5,0 -2.9000000953674316,-0.4000000059604645 -4.199999809265137,-1.100000023841858 c-1.2000000476837158,-0.699999988079071 -2.200000047683716,-1.7000000476837158 -3,-3.0999999046325684 c-0.699999988079071,-1.2999999523162842 -1.100000023841858,-2.9000000953674316 -1.100000023841858,-4.599999904632568 c0,-1.7999999523162842 0.4000000059604645,-3.299999952316284 1.100000023841858,-4.599999904632568 c0.699999988079071,-1.2999999523162842 1.7000000476837158,-2.299999952316284 3,-3 c1.2000000476837158,-0.699999988079071 2.700000047683716,-1.100000023841858 4.199999809265137,-1.100000023841858 c1.600000023841858,0 3,0.4000000059604645 4.199999809265137,1.100000023841858 c1.2000000476837158,0.699999988079071 2.200000047683716,1.7000000476837158 2.9000000953674316,3 c0.699999988079071,1.2999999523162842 1.100000023841858,2.799999952316284 1.100000023841858,4.599999904632568 C120.62041157484055,29.04844856262207 120.32040852308273,30.54844856262207 119.52040547132492,31.848451614379883 z" id="svg_22" transform=""/>
		<path class="st1" d="M151.1204268336296,26.948457717895508 c-1,-0.5 -2.0999999046325684,-1 -3.4000000953674316,-1.2000000476837158 c-1.2000000476837158,-0.30000001192092896 -2.4000000953674316,-0.5 -3.700000047683716,-0.699999988079071 c-1.2000000476837158,-0.20000000298023224 -2.299999952316284,-0.4000000059604645 -3.4000000953674316,-0.6000000238418579 c-1,-0.20000000298023224 -1.7999999523162842,-0.5 -2.4000000953674316,-1 c-0.6000000238418579,-0.4000000059604645 -0.9000002145767212,-1 -0.9000002145767212,-1.9000000953674316 c0,-0.9000002145767212 0.5,-1.600000023841858 1.5,-2.200000047683716 c1,-0.6000000238418579 2.4000000953674316,-0.9000002145767212 4.400000095367432,-0.9000002145767212 c1.2999999523162842,0 2.700000047683716,0.10000000149011612 4,0.4000000059604645 c1.399999976158142,0.30000001192092896 2.700000047683716,0.800000011920929 4,1.600000023841858 l2.5,-4.900000095367432 c-1.2999999523162842,-0.800000011920929 -2.9000000953674316,-1.399999976158142 -4.800000190734863,-1.7999999523162842 c-1.9000000953674316,-0.4000000059604645 -3.799999952316284,-0.6000000238418579 -5.599999904632568,-0.6000000238418579 c-2.5,0 -4.699999809265137,0.4000000059604645 -6.5,1.100000023841858 c-1.7999999523162842,0.699999988079071 -3.200000047683716,1.7000000476837158 -4.199999809265137,3 c-1,1.2999999523162842 -1.5,2.799999952316284 -1.5,4.5 c0,1.600000023841858 0.30000001192092896,2.9000000953674316 0.9000002145767212,3.9000000953674316 c0.6000000238418579,1 1.399999976158142,1.7000000476837158 2.4000000953674316,2.299999952316284 c1,0.6000000238418579 2.0999999046325684,1 3.4000000953674316,1.2999999523162842 c1.2000000476837158,0.30000001192092896 2.5,0.5 3.700000047683716,0.699999988079071 c1.2000000476837158,0.20000000298023224 2.299999952316284,0.4000000059604645 3.4000000953674316,0.6000000238418579 c1,0.20000000298023224 1.7999999523162842,0.5 2.4000000953674316,0.9000002145767212 c0.6000000238418579,0.4000000059604645 0.9000002145767212,1 0.9000002145767212,1.7000000476837158 c0,0.9000002145767212 -0.5,1.7000000476837158 -1.399999976158142,2.200000047683716 c-0.9000002145767212,0.5 -2.4000000953674316,0.800000011920929 -4.400000095367432,0.800000011920929 c-1.7999999523162842,0 -3.5,-0.30000001192092896 -5.199999809265137,-0.800000011920929 c-1.7000000476837158,-0.5 -3.200000047683716,-1.2000000476837158 -4.5,-1.9000000953674316 l-2.5,4.900000095367432 c1.2999999523162842,0.9000002145767212 3,1.600000023841858 5.099999904632568,2.200000047683716 c2.0999999046325684,0.6000000238418579 4.300000190734863,0.9000002145767212 6.699999809265137,0.9000002145767212 c2.5999999046325684,0 4.800000190734863,-0.4000000059604645 6.699999809265137,-1.100000023841858 c1.9000000953674316,-0.699999988079071 3.299999952316284,-1.7000000476837158 4.300000190734863,-3 c1,-1.2999999523162842 1.5,-2.799999952316284 1.5,-4.5 c0,-1.600000023841858 -0.30000001192092896,-2.799999952316284 -0.9000002145767212,-3.799999952316284 C153.02042073011398,28.148452758789062 152.22041767835617,27.448457717895508 151.1204268336296,26.948457717895508 z" id="svg_23" transform=""/>
		<path class="st1" d="M171.42041462659836,36.14845657348633 c-1.2000000476837158,0 -2.200000047683716,-0.4000000059604645 -2.9000000953674316,-1.100000023841858 c-0.699999988079071,-0.699999988079071 -1,-1.7000000476837158 -1,-3.0999999046325684 v-13.199999809265137 h7.5 V13.648454666137695 h-7.5 v-6.300000190734863 H161.02042073011398 v6.300000190734863 h-4.599999904632568 v5.199999809265137 h4.599999904632568 v13.399999618530273 c0,3 0.800000011920929,5.400000095367432 2.5,6.900000095367432 c1.7000000476837158,1.600000023841858 4,2.4000000953674316 7.099999904632568,2.4000000953674316 c1.100000023841858,0 2.299999952316284,-0.20000000298023224 3.4000000953674316,-0.5 c1.100000023841858,-0.30000001192092896 2.0999999046325684,-0.800000011920929 2.9000000953674316,-1.399999976158142 l-1.9000000953674316,-4.599999904632568 C174.02042073011398,35.74846267700195 172.8204237818718,36.14845657348633 171.42041462659836,36.14845657348633 z" id="svg_24" transform=""/>
		<path class="st1" d="M192.8204237818718,13.04844856262207 c-2.200000047683716,0 -4.300000190734863,0.30000001192092896 -6.400000095367432,0.9000002145767212 c-2,0.6000000238418579 -3.799999952316284,1.5 -5.400000095367432,2.5999999046325684 l2.5,4.699999809265137 c1.100000023841858,-0.9000002145767212 2.4000000953674316,-1.5 3.799999952316284,-2 c1.5,-0.5 3,-0.699999988079071 4.5,-0.699999988079071 c2.4000000953674316,0 4.099999904632568,0.5 5.300000190734863,1.600000023841858 c1.2000000476837158,1.100000023841858 1.7000000476837158,2.5 1.7000000476837158,4.400000095367432 v0.4000000059604645 h-7.199999809265137 c-2.799999952316284,0 -5.099999904632568,0.4000000059604645 -6.800000190734863,1.100000023841858 c-1.7000000476837158,0.699999988079071 -2.9000000953674316,1.7000000476837158 -3.700000047683716,3 c-0.699999988079071,1.2000000476837158 -1.100000023841858,2.700000047683716 -1.100000023841858,4.199999809265137 c0,1.600000023841858 0.4000000059604645,3 1.2999999523162842,4.300000190734863 c0.800000011920929,1.2999999523162842 2.0999999046325684,2.299999952316284 3.5999999046325684,3 c1.600000023841858,0.699999988079071 3.4000000953674316,1.100000023841858 5.5,1.100000023841858 c2.5,0 4.5,-0.4000000059604645 6.099999904632568,-1.399999976158142 c1.100000023841858,-0.6000000238418579 2,-1.399999976158142 2.5999999046325684,-2.4000000953674316 v3.4000000953674316 h6.099999904632568 v-16.299999237060547 c0,-4 -1.100000023841858,-7 -3.299999952316284,-8.899999618530273 C200.02042073011398,14.04844856262207 196.8204237818718,13.04844856262207 192.8204237818718,13.04844856262207 zM196.22041767835617,35.74846267700195 c-1.2999999523162842,0.699999988079071 -2.700000047683716,1.100000023841858 -4.300000190734863,1.100000023841858 c-1.7000000476837158,0 -3,-0.30000001192092896 -3.9000000953674316,-1 c-0.9000002145767212,-0.699999988079071 -1.399999976158142,-1.600000023841858 -1.399999976158142,-2.799999952316284 c0,-1.100000023841858 0.4000000059604645,-2 1.2000000476837158,-2.700000047683716 c0.800000011920929,-0.699999988079071 2.299999952316284,-1.100000023841858 4.400000095367432,-1.100000023841858 h6.800000190734863 v3.200000047683716 C198.42041462659836,33.94845962524414 197.52042073011398,34.94845962524414 196.22041767835617,35.74846267700195 z" id="svg_25" transform=""/>
		<path class="st1" d="M251.82040852308273,29.04844856262207 c2.299999952316284,-1 4.099999904632568,-2.5 5.300000190734863,-4.400000095367432 c1.2000000476837158,-1.9000000953674316 1.9000000953674316,-4.199999809265137 1.9000000953674316,-6.900000095367432 c0,-2.700000047683716 -0.6000000238418579,-5 -1.9000000953674316,-7 c-1.2000000476837158,-1.9000000953674316 -3,-3.4000000953674316 -5.300000190734863,-4.400000095367432 c-2.299999952316284,-1 -5.099999904632568,-1.5 -8.300000190734863,-1.5 h-15 v36.400001525878906 h6.800000190734863 v-10.600000381469727 h8.199999809265137 c0.5,0 1,0 1.399999976158142,0 l7.400000095367432,10.600000381469727 h7.300000190734863 l-8.399999618530273,-11.899999618530273 C251.52042073011398,29.148452758789062 251.72043293714523,29.04844856262207 251.82040852308273,29.04844856262207 zM250.02042073011398,12.448457717895508 c1.5,1.2999999523162842 2.299999952316284,3 2.299999952316284,5.300000190734863 c0,2.299999952316284 -0.800000011920929,4.099999904632568 -2.299999952316284,5.400000095367432 c-1.5,1.2999999523162842 -3.799999952316284,1.9000000953674316 -6.699999809265137,1.9000000953674316 h-7.900000095367432 v-14.5 h7.900000095367432 C246.22043293714523,10.54844856262207 248.52042073011398,11.148454666137695 250.02042073011398,12.448457717895508 z" id="svg_26" transform=""/>
		<path class="st1" d="M269.22041767835617,1.0484482049942017 c-1.2000000476837158,0 -2.200000047683716,0.4000000059604645 -3,1.100000023841858 c-0.800000011920929,0.800000011920929 -1.2000000476837158,1.7000000476837158 -1.2000000476837158,2.700000047683716 c0,1.100000023841858 0.4000000059604645,2 1.2000000476837158,2.799999952316284 c0.800000011920929,0.800000011920929 1.7999999523162842,1.100000023841858 3,1.100000023841858 c1.2000000476837158,0 2.299999952316284,-0.4000000059604645 3,-1.2000000476837158 c0.800000011920929,-0.800000011920929 1.100000023841858,-1.7000000476837158 1.100000023841858,-2.799999952316284 c0,-1.100000023841858 -0.4000000059604645,-2 -1.2000000476837158,-2.700000047683716 C271.4203993678093,1.4484573602676392 270.4203993678093,1.0484482049942017 269.22041767835617,1.0484482049942017 z" id="svg_27" transform=""/>
		<rect x="266.0204105377197" y="13.44845736026764" class="st1" width="6.400000095367432" height="27.700000762939453" id="svg_28" transform=""/>
		<path class="st1" d="M289.4203993678093,19.648454666137695 c1.2999999523162842,-0.699999988079071 2.700000047683716,-1.100000023841858 4.300000190734863,-1.100000023841858 c1.399999976158142,0 2.700000047683716,0.30000001192092896 3.9000000953674316,1 c1.2000000476837158,0.6000000238418579 2.200000047683716,1.600000023841858 3,2.9000000953674316 l4.900000095367432,-2.9000000953674316 c-1,-2.0999999046325684 -2.5999999046325684,-3.700000047683716 -4.699999809265137,-4.800000190734863 c-2.0999999046325684,-1.100000023841858 -4.5,-1.7000000476837158 -7.099999904632568,-1.7000000476837158 c-2.9000000953674316,0 -5.5,0.6000000238418579 -7.800000190734863,1.7999999523162842 c-2.299999952316284,1.2000000476837158 -4,2.9000000953674316 -5.300000190734863,5 c-1.2999999523162842,2.0999999046325684 -1.9000000953674316,4.599999904632568 -1.9000000953674316,7.400000095367432 c0,2.799999952316284 0.6000000238418579,5.199999809265137 1.9000000953674316,7.400000095367432 c1.2999999523162842,2.0999999046325684 3.0999999046325684,3.799999952316284 5.300000190734863,5 c2.299999952316284,1.2000000476837158 4.900000095367432,1.7999999523162842 7.800000190734863,1.7999999523162842 c2.700000047683716,0 5,-0.6000000238418579 7.099999904632568,-1.7000000476837158 c2.0999999046325684,-1.100000023841858 3.5999999046325684,-2.700000047683716 4.699999809265137,-4.800000190734863 l-4.900000095367432,-2.9000000953674316 c-0.800000011920929,1.2999999523162842 -1.7999999523162842,2.299999952316284 -3,2.9000000953674316 c-1.2000000476837158,0.6000000238418579 -2.5,1 -3.9000000953674316,1 c-1.600000023841858,0 -3,-0.4000000059604645 -4.300000190734863,-1.100000023841858 c-1.2999999523162842,-0.699999988079071 -2.299999952316284,-1.7000000476837158 -3,-3 c-0.699999988079071,-1.2999999523162842 -1.100000023841858,-2.9000000953674316 -1.100000023841858,-4.599999904632568 c0,-1.7999999523162842 0.4000000059604645,-3.299999952316284 1.100000023841858,-4.599999904632568 C287.12041157484055,21.34844970703125 288.12041157484055,20.34844970703125 289.4203993678093,19.648454666137695 z" id="svg_29" transform=""/>
		<path class="st1" d="M321.82039326429367,13.04844856262207 c-2.200000047683716,0 -4.300000190734863,0.30000001192092896 -6.400000095367432,0.9000002145767212 c-2,0.6000000238418579 -3.799999952316284,1.5 -5.400000095367432,2.5999999046325684 l2.5,4.699999809265137 c1.100000023841858,-0.9000002145767212 2.4000000953674316,-1.5 3.799999952316284,-2 c1.5,-0.5 3,-0.699999988079071 4.5,-0.699999988079071 c2.4000000953674316,0 4.099999904632568,0.5 5.300000190734863,1.600000023841858 c1.2000000476837158,1.100000023841858 1.7000000476837158,2.5 1.7000000476837158,4.400000095367432 v0.4000000059604645 h-7.199999809265137 c-2.799999952316284,0 -5.099999904632568,0.4000000059604645 -6.800000190734863,1.100000023841858 c-1.7000000476837158,0.699999988079071 -2.9000000953674316,1.7000000476837158 -3.700000047683716,3 c-0.699999988079071,1.2000000476837158 -1.100000023841858,2.700000047683716 -1.100000023841858,4.199999809265137 c0,1.600000023841858 0.4000000059604645,3 1.2999999523162842,4.300000190734863 c0.800000011920929,1.2999999523162842 2.0999999046325684,2.299999952316284 3.5999999046325684,3 c1.600000023841858,0.699999988079071 3.4000000953674316,1.100000023841858 5.5,1.100000023841858 c2.5,0 4.5,-0.4000000059604645 6.099999904632568,-1.399999976158142 c1.100000023841858,-0.6000000238418579 2,-1.399999976158142 2.5999999046325684,-2.4000000953674316 v3.4000000953674316 h6.099999904632568 v-16.299999237060547 c0,-4 -1.100000023841858,-7 -3.299999952316284,-8.899999618530273 C329.0204054713249,14.04844856262207 325.9203993678093,13.04844856262207 321.82039326429367,13.04844856262207 zM325.22041767835617,35.74846267700195 c-1.2999999523162842,0.699999988079071 -2.700000047683716,1.100000023841858 -4.300000190734863,1.100000023841858 c-1.7000000476837158,0 -3,-0.30000001192092896 -3.9000000953674316,-1 c-0.9000002145767212,-0.699999988079071 -1.399999976158142,-1.600000023841858 -1.399999976158142,-2.799999952316284 c0,-1.100000023841858 0.4000000059604645,-2 1.2000000476837158,-2.700000047683716 c0.800000011920929,-0.699999988079071 2.299999952316284,-1.100000023841858 4.400000095367432,-1.100000023841858 h6.800000190734863 v3.200000047683716 C327.4203993678093,33.94845962524414 326.5204054713249,34.94845962524414 325.22041767835617,35.74846267700195 z" id="svg_30" transform=""/>
		<polygon class="st1" points="352.9203993678093,10.54844856262207 365.0204054713249,10.54844856262207 365.0204054713249,41.14845657348633 371.72041767835617,41.14845657348633 371.72041767835617,10.54844856262207 383.82039326429367,10.54844856262207 383.82039326429367,4.748460292816162 352.9203993678093,4.748460292816162 " id="svg_31" transform=""/>
		<path class="st1" d="M408.62041157484055,27.448457717895508 c0,1.7999999523162842 -0.30000001192092896,3.4000000953674316 -0.9000002145767212,4.599999904632568 c-0.6000000238418579,1.2000000476837158 -1.5,2.200000047683716 -2.700000047683716,2.799999952316284 c-1.100000023841858,0.6000000238418579 -2.5,0.9000002145767212 -4,0.9000002145767212 c-2,0 -3.5999999046325684,-0.6000000238418579 -4.800000190734863,-1.7999999523162842 c-1.100000023841858,-1.2000000476837158 -1.7000000476837158,-3.0999999046325684 -1.7000000476837158,-5.5 v-15 H388.0204054713249 v15.800000190734863 c0,2.799999952316284 0.5,5.099999904632568 1.5,6.900000095367432 c1,1.7999999523162842 2.4000000953674316,3.200000047683716 4.199999809265137,4.099999904632568 c1.7999999523162842,0.9000002145767212 3.9000000953674316,1.2999999523162842 6.199999809265137,1.2999999523162842 c2.0999999046325684,0 4.099999904632568,-0.5 5.900000095367432,-1.5 c1.2000000476837158,-0.6000000238418579 2.200000047683716,-1.5 3,-2.5 v3.5999999046325684 h6.199999809265137 v-27.700000762939453 h-6.5 V27.448457717895508 z" id="svg_32" transform=""/>
		<path class="st1" d="M429.9203993678093,17.448457717895508 v-4 h-6.199999809265137 v27.700000762939453 h6.400000095367432 v-13.399999618530273 c0,-2.9000000953674316 0.699999988079071,-5.099999904632568 2.200000047683716,-6.5 c1.5,-1.399999976158142 3.4000000953674316,-2.0999999046325684 5.900000095367432,-2.0999999046325684 c0.20000000298023224,0 0.4000000059604645,0 0.699999988079071,0 c0.20000000298023224,0 0.5,0 0.699999988079071,0.10000000149011612 v-6.199999809265137 c-2.5999999046325684,0 -4.800000190734863,0.5 -6.599999904632568,1.5 C431.72041767835617,15.248459815979004 430.72041767835617,16.248458862304688 429.9203993678093,17.448457717895508 z" id="svg_33" transform=""/>
		<path class="st1" d="M464.82039326429367,14.8484525680542 c-2.0999999046325684,-1.2000000476837158 -4.5,-1.7999999523162842 -7.199999809265137,-1.7999999523162842 c-2.799999952316284,0 -5.199999809265137,0.6000000238418579 -7.400000095367432,1.7999999523162842 c-2.200000047683716,1.2000000476837158 -3.9000000953674316,2.9000000953674316 -5.099999904632568,5 c-1.2000000476837158,2.0999999046325684 -1.7999999523162842,4.599999904632568 -1.7999999523162842,7.400000095367432 c0,2.799999952316284 0.6000000238418579,5.199999809265137 1.9000000953674316,7.400000095367432 c1.2999999523162842,2.0999999046325684 3,3.799999952316284 5.400000095367432,5 c2.299999952316284,1.2000000476837158 5,1.7999999523162842 8.100000381469727,1.7999999523162842 c2.4000000953674316,0 4.599999904632568,-0.4000000059604645 6.5,-1.100000023841858 c1.9000000953674316,-0.800000011920929 3.5,-1.9000000953674316 4.800000190734863,-3.299999952316284 l-3.5,-4.099999904632568 c-1,1 -2.0999999046325684,1.7999999523162842 -3.299999952316284,2.299999952316284 c-1.2000000476837158,0.5 -2.700000047683716,0.800000011920929 -4.199999809265137,0.800000011920929 c-1.7999999523162842,0 -3.4000000953674316,-0.4000000059604645 -4.800000190734863,-1.100000023841858 c-1.399999976158142,-0.699999988079071 -2.5,-1.7000000476837158 -3.200000047683716,-3 c-0.5,-0.800000011920929 -0.800000011920929,-1.7000000476837158 -0.9000002145767212,-2.700000047683716 h21.799999237060547 c0,-0.30000001192092896 0.10000000149011612,-0.6000000238418579 0.10000000149011612,-1 c0,-0.4000000059604645 0,-0.699999988079071 0,-0.9000002145767212 c0,-2.9000000953674316 -0.6000000238418579,-5.5 -1.7999999523162842,-7.599999904632568 C468.5204054713249,17.74846076965332 466.9204298853874,16.04844856262207 464.82039326429367,14.8484525680542 zM450.5204054713249,22.248458862304688 c0.699999988079071,-1.2000000476837158 1.600000023841858,-2.200000047683716 2.799999952316284,-2.9000000953674316 c1.2000000476837158,-0.699999988079071 2.5999999046325684,-1 4.199999809265137,-1 c1.600000023841858,0 3,0.30000001192092896 4.199999809265137,1 c1.2000000476837158,0.699999988079071 2.0999999046325684,1.600000023841858 2.799999952316284,2.9000000953674316 c0.5,0.9000002145767212 0.800000011920929,1.7999999523162842 0.9000002145767212,2.799999952316284 h-15.699999809265137 C449.82039326429367,24.04844856262207 450.12041157484055,23.04844856262207 450.5204054713249,22.248458862304688 z" id="svg_34" transform=""/>
		<path class="st1" d="M498.0204054713249,29.148452758789062 c-0.6000000238418579,-1 -1.399999976158142,-1.7000000476837158 -2.5,-2.299999952316284 c-1,-0.5 -2.0999999046325684,-1 -3.4000000953674316,-1.2000000476837158 c-1.2000000476837158,-0.30000001192092896 -2.4000000953674316,-0.5 -3.700000047683716,-0.699999988079071 c-1.2000000476837158,-0.20000000298023224 -2.299999952316284,-0.4000000059604645 -3.4000000953674316,-0.6000000238418579 c-1,-0.20000000298023224 -1.7999999523162842,-0.5 -2.4000000953674316,-1 c-0.6000000238418579,-0.4000000059604645 -0.9000002145767212,-1 -0.9000002145767212,-1.9000000953674316 c0,-0.9000002145767212 0.5,-1.600000023841858 1.5,-2.200000047683716 c1,-0.6000000238418579 2.4000000953674316,-0.9000002145767212 4.400000095367432,-0.9000002145767212 c1.2999999523162842,0 2.700000047683716,0.10000000149011612 4,0.4000000059604645 c1.399999976158142,0.30000001192092896 2.700000047683716,0.800000011920929 3.9000000953674316,1.600000023841858 l2.5,-4.900000095367432 c-1.2999999523162842,-0.800000011920929 -2.9000000953674316,-1.399999976158142 -4.800000190734863,-1.7999999523162842 c-1.9000000953674316,-0.4000000059604645 -3.799999952316284,-0.6000000238418579 -5.599999904632568,-0.6000000238418579 c-2.5,0 -4.699999809265137,0.4000000059604645 -6.5,1.100000023841858 c-1.7999999523162842,0.699999988079071 -3.200000047683716,1.7000000476837158 -4.199999809265137,3 c-1,1.2999999523162842 -1.5,2.799999952316284 -1.5,4.5 c0,1.600000023841858 0.30000001192092896,2.9000000953674316 0.9000002145767212,3.9000000953674316 c0.6000000238418579,1 1.399999976158142,1.7000000476837158 2.4000000953674316,2.299999952316284 c1,0.6000000238418579 2.0999999046325684,1 3.4000000953674316,1.2999999523162842 c1.2000000476837158,0.30000001192092896 2.5,0.5 3.700000047683716,0.699999988079071 c1.2000000476837158,0.20000000298023224 2.299999952316284,0.4000000059604645 3.4000000953674316,0.6000000238418579 c1,0.20000000298023224 1.7999999523162842,0.5 2.4000000953674316,0.9000002145767212 c0.6000000238418579,0.4000000059604645 0.9000002145767212,1 0.9000002145767212,1.7000000476837158 c0,0.9000002145767212 -0.5,1.7000000476837158 -1.399999976158142,2.200000047683716 c-0.9000002145767212,0.5 -2.4000000953674316,0.800000011920929 -4.400000095367432,0.800000011920929 c-1.7999999523162842,0 -3.5,-0.30000001192092896 -5.199999809265137,-0.800000011920929 c-1.7000000476837158,-0.5 -3.200000047683716,-1.2000000476837158 -4.5,-1.9000000953674316 l-2.5,4.900000095367432 c1.2999999523162842,0.9000002145767212 3,1.600000023841858 5.099999904632568,2.200000047683716 c2.0999999046325684,0.6000000238418579 4.300000190734863,0.9000002145767212 6.699999809265137,0.9000002145767212 c2.5999999046325684,0 4.800000190734863,-0.4000000059604645 6.699999809265137,-1.100000023841858 c1.9000000953674316,-0.699999988079071 3.299999952316284,-1.7000000476837158 4.300000190734863,-3 c1,-1.2999999523162842 1.5,-2.799999952316284 1.5,-4.5 C499.0204054713249,31.348451614379883 498.6203810572624,30.148452758789062 498.0204054713249,29.148452758789062 z" id="svg_35" transform=""/>
	</g>
	<path class="st1" d="M9.420411765575409,13.848451614379883 c-4.800000190734863,0 -8.600000381469727,3.0999999046325684 -8.600000381469727,7 c0,3.9000000953674316 3.9000000953674316,7 8.600000381469727,7 c4.800000190734863,0 8.600000381469727,-3.0999999046325684 8.600000381469727,-7 C18.120409667491913,17.04844856262207 14.22041004896164,13.848451614379883 9.420411765575409,13.848451614379883 zM8.020410716533661,19.648454666137695 c0,0.699999988079071 -0.5,1.2999999523162842 -1.2000000476837158,1.2999999523162842 h-1.600000023841858 c-0.6000000238418579,0 -1.2000000476837158,-0.6000000238418579 -1.2000000476837158,-1.2999999523162842 v-0.4000000059604645 c0,-0.699999988079071 0.5,-1.2999999523162842 1.2000000476837158,-1.2999999523162842 h1.600000023841858 c0.6000000238418579,0 1.2000000476837158,0.6000000238418579 1.2000000476837158,1.2999999523162842 V19.648454666137695 zM9.520410239696503,25.04844856262207 c-0.699999988079071,0 -1.2999999523162842,-0.6000000238418579 -1.2999999523162842,-1.399999976158142 c0,-0.800000011920929 0.6000000238418579,-1.399999976158142 1.2999999523162842,-1.399999976158142 c0.699999988079071,0 1.2999999523162842,0.6000000238418579 1.2999999523162842,1.399999976158142 C10.82040947675705,24.448457717895508 10.220411002635956,25.04844856262207 9.520410239696503,25.04844856262207 zM14.620409667491913,19.648454666137695 c0,0.699999988079071 -0.5,1.2999999523162842 -1.2000000476837158,1.2999999523162842 h-1.600000023841858 c-0.6000000238418579,0 -1.2000000476837158,-0.6000000238418579 -1.2000000476837158,-1.2999999523162842 v-0.4000000059604645 c0,-0.699999988079071 0.5,-1.2999999523162842 1.2000000476837158,-1.2999999523162842 h1.600000023841858 c0.6000000238418579,0 1.2000000476837158,0.6000000238418579 1.2000000476837158,1.2999999523162842 V19.648454666137695 zM45.720406234264374,4.44845724105835 h-6.800000190734863 c-0.9000002145767212,-2.9000000953674316 -4.800000190734863,-4.5 -5.099999904632568,-1.600000023841858 v1.600000023841858 h-5.400000095367432 c-1,-3 -5.099999904632568,-5 -5.199999809265137,-1.7999999523162842 v1.7999999523162842 H3.6204089522361755 c-0.699999988079071,0 -1.2999999523162842,0.6000000238418579 -1.2999999523162842,1.399999976158142 l0,0 c0,0.800000011920929 0.6000000238418579,1.399999976158142 1.2999999523162842,1.399999976158142 h19.700000762939453 v12.5 c0,0.800000011920929 -0.6000000238418579,1.5 -1.399999976158142,1.5 h-1.5 c-0.9000002145767212,5 -4.699999809265137,8.899999618530273 -12,8.399999618530273 c-0.4000000059604645,0 -0.9000002145767212,0 -1.2999999523162842,-0.10000000149011612 c3.200000047683716,7.099999904632568 10.300000190734863,12 18.5,12 c11.199999809265137,0 20.299999237060547,-9.100000381469727 20.299999237060547,-20.299999237060547 c0,-1.7000000476837158 -0.20000000298023224,-3.4000000953674316 -0.6000000238418579,-5 c-0.20000000298023224,-0.699999988079071 -1,-1 -1.5,-0.5 l-4.699999809265137,4 v-12.100000381469727 l0,-0.4000000059604645 h6.699999809265137 c0.699999988079071,0 1.2999999523162842,-0.6000000238418579 1.2999999523162842,-1.399999976158142 l0,0 C47.020409286022186,5.148454189300537 46.42041081190109,4.44845724105835 45.720406234264374,4.44845724105835 zM33.92041081190109,20.448457717895508 c0,0.5 -0.4000000059604645,1 -0.9000002145767212,1 h-1.7000000476837158 l0,2.700000047683716 c0,0.800000011920929 -0.10000000149011612,1.600000023841858 -0.4000000059604645,2.4000000953674316 l-0.20000000298023224,0.5 c-0.30000001192092896,0.9000002145767212 -0.800000011920929,1.7999999523162842 -1.600000023841858,2.4000000953674316 c-0.9000002145767212,0.800000011920929 -2.200000047683716,1.7000000476837158 -3.0999999046325684,2.299999952316284 c-0.5,0.30000001192092896 -1.2000000476837158,0.20000000298023224 -1.600000023841858,-0.20000000298023224 c0,0 0,0 0,0 c-0.6000000238418579,-0.699999988079071 -0.5,-1.7999999523162842 0.20000000298023224,-2.299999952316284 c2.5,-1.600000023841858 4,-0.699999988079071 3.9000000953674316,-8.600000381469727 v-13.100000381469727 h5.400000095367432 V20.448457717895508 z" id="svg_36" transform=""/>
</g></g></svg>