<?xml version="1.0" encoding="utf-8"?>
<!-- Generator: Adobe Illustrator 26.1.0, SVG Export Plug-In . SVG Version: 6.00 Build 0)  -->
<svg version="1.1" xmlns="http://www.w3.org/2000/svg" xmlns:xlink="http://www.w3.org/1999/xlink" x="0px" y="0px"
	 viewBox="0 0 20 20" style="enable-background:new 0 0 20 20;" xml:space="preserve">
<style type="text/css">
	.st0{fill:#3AAA35;}
	.st1{fill:#1D1D1B;}
</style>
<g id="Слой_1">
	<g>
		<circle class="st0" cx="10" cy="10" r="9.3"/>
		<path class="st1" d="M5.7,7.8c-1.4,0-2.6,0.9-2.6,2.1C3.1,11,4.2,12,5.7,12c1.4,0,2.6-0.9,2.6-2.1C8.3,8.7,7.1,7.8,5.7,7.8z
			 M5.2,9.5c0,0.2-0.2,0.4-0.4,0.4H4.4c-0.2,0-0.4-0.2-0.4-0.4V9.4C4.1,9.1,4.2,9,4.4,9h0.5c0.2,0,0.4,0.2,0.4,0.4V9.5z M5.7,11.1
			c-0.2,0-0.4-0.2-0.4-0.4c0-0.2,0.2-0.4,0.4-0.4c0.2,0,0.4,0.2,0.4,0.4C6.1,10.9,5.9,11.1,5.7,11.1z M7.2,9.5
			c0,0.2-0.2,0.4-0.4,0.4H6.4C6.2,9.9,6,9.7,6,9.5V9.4C6,9.1,6.2,9,6.4,9h0.5C7,9,7.2,9.1,7.2,9.4V9.5z M16.5,4.9h-2
			c-0.3-0.9-1.4-1.4-1.5-0.5v0.5h-1.6C11.1,4,9.8,3.4,9.8,4.4v0.5H3.9c-0.2,0-0.4,0.2-0.4,0.4v0c0,0.2,0.2,0.4,0.4,0.4h5.9v3.8
			c0,0.2-0.2,0.4-0.4,0.4H8.9c-0.3,1.5-1.4,2.7-3.6,2.5c-0.1,0-0.3,0-0.4,0c0.9,2.1,3.1,3.6,5.5,3.6c3.4,0,6.1-2.7,6.1-6.1
			c0-0.5-0.1-1-0.2-1.5c-0.1-0.2-0.3-0.3-0.5-0.2l-1.4,1.2V5.9l0-0.1h2c0.2,0,0.4-0.2,0.4-0.4v0C16.9,5.1,16.8,4.9,16.5,4.9z
			 M13,9.7c0,0.2-0.1,0.3-0.3,0.3h-0.5l0,0.8c0,0.2,0,0.5-0.1,0.7l0,0.1c-0.1,0.3-0.3,0.5-0.5,0.7c-0.3,0.2-0.7,0.5-0.9,0.7
			c-0.2,0.1-0.3,0.1-0.5-0.1c0,0,0,0,0,0c-0.2-0.2-0.2-0.5,0.1-0.7c0.7-0.5,1.2-0.2,1.2-2.6V5.8H13V9.7z"/>
	</g>
</g>
<g id="Слой_2">
</g>
</svg>
