<svg width="169" height="16" xmlns="http://www.w3.org/2000/svg">
 <!-- Created with Method Draw - http://github.com/duopixel/Method-Draw/ -->

 <g>
  <title>background</title>
  <rect fill="none" id="canvas_background" height="18" width="171" y="-1" x="-1"/>
  <g display="none" overflow="visible" y="0" x="0" height="100%" width="100%" id="canvasGrid">
   <rect fill="url(#gridpattern)" stroke-width="0" y="0" x="0" height="100%" width="100%"/>
  </g>
 </g>
 <g>
  <title>Layer 1</title>
  <style type="text/css">.st0{fill:#1D1D1B;}
	.st1{fill:#FFFFFF;}</style>
  <g id="svg_41">
   <g transform="matrix(0.335965 0 0 0.335965 0 0)" id="svg_5">
    <g id="svg_6">
     <path id="svg_7" d="m72.67137,15.7067c1.20001,-1.10004 2.5,-2 4.09998,-2.70001c1.60004,-0.59998 3.29999,-0.90002 5.20001,-0.90002c1.90002,0 3.60004,0.40002 5.20001,1.10004c1.59998,0.70001 3.09998,1.79999 4.5,3.20001l4.40002,-4.10004c-1.70007,-2 -3.80005,-3.5 -6.20007,-4.5c-2.5,-1 -5.19995,-1.5 -8.19995,-1.5c-2.79999,0 -5.40002,0.5 -7.70001,1.40003c-2.40002,0.89996 -4.40002,2.20001 -6.20001,3.89996c-1.79999,1.70001 -3.09998,3.70001 -4.09998,5.90002c-1,2.29999 -1.5,4.70001 -1.5,7.5c0,2.70001 0.5,5.20001 1.5,7.5c1,2.29999 2.29999,4.20001 4.09998,5.90002c1.70001,1.69995 3.79999,3 6.20001,3.89996c2.40002,0.90002 4.90002,1.40002 7.70001,1.40002c3,0 5.80005,-0.5 8.19995,-1.60004c2.5,-1 4.5,-2.59998 6.20007,-4.59998l-4.40002,-4.09998c-1.40002,1.5 -2.80005,2.5 -4.5,3.19995c-1.59998,0.70001 -3.40002,1.10004 -5.20001,1.10004c-1.90002,0 -3.59998,-0.29999 -5.20001,-0.90002c-1.59998,-0.59998 -2.89996,-1.5 -4.09998,-2.59998c-1.20001,-1.10004 -2.10004,-2.5 -2.70001,-4.10004c-0.70001,-1.59998 -1,-3.29999 -1,-5.09998c0,-1.90002 0.29999,-3.59998 1,-5.09998c0.70001,-1.70001 1.59998,-3 2.70001,-4.20001z" class="st0"/>
     <path id="svg_8" d="m122.17137,16.80667c-2.19995,-1.20001 -4.80005,-1.79999 -7.69995,-1.79999c-2.80005,0 -5.40002,0.59998 -7.6001,1.79999c-2.19995,1.20001 -4,2.90002 -5.19995,5c-1.30005,2.10004 -1.90002,4.60004 -1.90002,7.40003c0,2.70001 0.59998,5.20001 1.90002,7.29999c1.30005,2.09998 3,3.79999 5.30005,5.09998c2.19995,1.20001 4.79993,1.80005 7.59998,1.80005c2.79993,0 5.40002,-0.60004 7.59998,-1.80005c2.30005,-1.19995 4,-2.89996 5.30005,-5c1.29993,-2.09998 1.8999,-4.59998 1.8999,-7.39996c0,-2.79999 -0.59998,-5.29999 -1.8999,-7.40003c-1.40002,-2.09998 -3.1001,-3.70001 -5.30005,-5zm-0.5,17c-0.69995,1.29999 -1.69995,2.40002 -2.90002,3.10004c-1.19995,0.69995 -2.69995,1.09998 -4.29993,1.09998c-1.5,0 -2.90002,-0.40002 -4.20007,-1.09998c-1.19995,-0.70001 -2.19995,-1.70001 -3,-3.10004c-0.69995,-1.29999 -1.09998,-2.89996 -1.09998,-4.59997c0,-1.79999 0.40002,-3.29999 1.09998,-4.60004c0.70007,-1.29999 1.70007,-2.29999 3,-3c1.20007,-0.69995 2.70007,-1.09998 4.20007,-1.09998c1.59998,0 3,0.40002 4.19995,1.09998c1.19995,0.70001 2.19995,1.70001 2.90002,3c0.69995,1.30005 1.09998,2.80005 1.09998,4.60004c0.09998,1.79999 -0.30005,3.29999 -1,4.59997z" class="st0"/>
     <path id="svg_9" d="m153.27135,28.80667c-1,-0.5 -2.09998,-1 -3.40002,-1.20001c-1.19995,-0.29999 -2.3999,-0.5 -3.69995,-0.69995c-1.19995,-0.20001 -2.30005,-0.40002 -3.40002,-0.60003c-1,-0.20001 -1.79993,-0.5 -2.40002,-1c-0.59998,-0.39997 -0.8999,-1 -0.8999,-1.89997c0,-0.90002 0.5,-1.60004 1.5,-2.20001c1,-0.60004 2.3999,-0.90002 4.3999,-0.90002c1.30005,0 2.70007,0.10003 4,0.40002c1.40002,0.29999 2.70007,0.79999 4,1.59998l2.5,-4.89997c-1.29993,-0.80005 -2.8999,-1.40002 -4.79993,-1.80005c-1.90002,-0.39996 -3.80005,-0.59998 -5.59998,-0.59998c-2.5,0 -4.70007,0.40002 -6.5,1.09997c-1.80005,0.70001 -3.20007,1.70001 -4.20007,3c-1,1.30005 -1.5,2.80005 -1.5,4.5c0,1.60004 0.30005,2.90002 0.90002,3.90002c0.59998,1 1.40002,1.70001 2.40002,2.29999c1,0.60004 2.09998,1 3.40002,1.29999c1.19995,0.30005 2.5,0.5 3.69995,0.70001c1.19995,0.20001 2.30005,0.40002 3.40002,0.60004c1,0.19995 1.79993,0.5 2.40002,0.89996c0.59998,0.40002 0.8999,1 0.8999,1.70001c0,0.90002 -0.5,1.70001 -1.3999,2.20001c-0.90002,0.5 -2.40002,0.79999 -4.40002,0.79999c-1.80005,0 -3.5,-0.29999 -5.20007,-0.79999c-1.69995,-0.5 -3.19995,-1.20001 -4.5,-1.90002l-2.5,4.90002c1.30005,0.89996 3,1.59998 5.1001,2.20001c2.09998,0.59998 4.29993,0.89996 6.69995,0.89996c2.59998,0 4.80005,-0.39996 6.69995,-1.09998c1.90002,-0.70001 3.30005,-1.70001 4.30005,-3c1,-1.29999 1.5,-2.79999 1.5,-4.5c0,-1.60004 -0.30005,-2.79999 -0.90002,-3.79999c-0.69995,-0.80005 -1.5,-1.5 -2.5,-2.10004z" class="st0"/>
     <path id="svg_10" d="m173.5714,38.10666c-1.20007,0 -2.20007,-0.39996 -2.90002,-1.09998c-0.69995,-0.70001 -1,-1.70001 -1,-3.09998l0,-13.10004l7.5,0l0,-5.20001l-7.5,0l0,-6.29999l-6.40002,0l0,6.29999l-4.59998,0l0,5.20001l4.59998,0l0,13.40002c0,3 0.80005,5.39996 2.5,6.89996c1.70007,1.60004 4,2.40002 7.09998,2.40002c1.1001,0 2.30005,-0.20001 3.40002,-0.5c1.09998,-0.29999 2.09998,-0.79999 2.90002,-1.40002l-1.90002,-4.59998c-1.09998,0.70001 -2.29993,1.09998 -3.69995,1.09998z" class="st0"/>
     <path id="svg_11" d="m194.87132,15.00668c-2.19995,0 -4.29993,0.29999 -6.40002,0.90002c-2,0.59997 -3.79993,1.5 -5.3999,2.59997l2.5,4.70001c1.09998,-0.90002 2.3999,-1.5 3.79993,-2c1.5,-0.5 3,-0.70001 4.5,-0.70001c2.40002,0 4.09998,0.5 5.30005,1.59998c1.19995,1.10004 1.69995,2.5 1.69995,4.40002l0,0.40002l-7.19995,0c-2.80005,0 -5.09998,0.39997 -6.80005,1.09998c-1.69995,0.70001 -2.90002,1.70001 -3.69995,3c-0.70007,1.20001 -1.09998,2.70001 -1.09998,4.20001c0,1.59998 0.3999,3 1.29993,4.29999c0.80005,1.29999 2.09998,2.29999 3.59998,3c1.6001,0.70001 3.40002,1.09998 5.5,1.09998c2.5,0 4.5,-0.39996 6.1001,-1.39996c1.09998,-0.60004 2,-1.40002 2.59998,-2.40002l0,3.40002l6.09998,0l0,-16.40002c0,-4 -1.09998,-7 -3.30005,-8.89996c-1.8999,-1.90002 -4.99988,-2.90002 -9.09998,-2.90002zm3.40002,22.70001c-1.29993,0.70001 -2.69995,1.09998 -4.29993,1.09998c-1.70007,0 -3,-0.29999 -3.90002,-1c-0.90002,-0.70001 -1.40002,-1.59998 -1.40002,-2.79999c0,-1.09998 0.40002,-2 1.19995,-2.70001c0.80005,-0.70001 2.30005,-1.09997 4.40002,-1.09997l6.80005,0l0,3.20001c-0.59998,1.5 -1.5,2.5 -2.80005,3.29999z" class="st0"/>
     <path id="svg_12" d="m253.97142,31.00668c2.29991,-1 4.09999,-2.5 5.29991,-4.40002c1.2001,-1.89996 1.90005,-4.19995 1.90005,-6.89996c0,-2.70001 -0.60001,-5 -1.90005,-7c-1.19992,-1.90003 -3,-3.40003 -5.29991,-4.40003c-2.30005,-1 -5.1001,-1.5 -8.30005,-1.5l-15,0l0,36.40002l6.80005,0l0,-10.70001l8.19995,0c0.5,0 1,0 1.40002,0l7.40002,10.59998l7.29991,0l-8.40001,-11.89996c0.20007,-0.10004 0.40002,-0.20001 0.6001,-0.20001zm-1.90002,-16.70001c1.5,1.29999 2.29993,3 2.29993,5.29999c0,2.30005 -0.79993,4.10004 -2.29993,5.40002c-1.5,1.29999 -3.80005,1.90002 -6.70007,1.90002l-7.8999,0l0,-14.40002l7.8999,0c3,0 5.20007,0.59998 6.70007,1.79999z" class="st0"/>
     <path id="svg_13" d="m271.37131,3.00668c-1.19992,0 -2.19992,0.40002 -3,1.09998c-0.79993,0.80005 -1.19992,1.70001 -1.19992,2.70001c0,1.10004 0.39999,2 1.19992,2.79999c0.80008,0.80005 1.80008,1.10004 3,1.10004c1.20007,0 2.30008,-0.40003 3,-1.20001c0.80008,-0.79999 1.10013,-1.70001 1.10013,-2.79999c0,-1.10004 -0.40015,-2 -1.2001,-2.70001c-0.69995,-0.59998 -1.69995,-1 -2.90002,-1z" class="st0"/>
     <rect id="svg_14" height="27.7" width="6.4" class="st0" y="15.40668" x="268.07136"/>
     <path id="svg_15" d="m291.47144,21.60666c1.2999,-0.69995 2.69995,-1.09998 4.2999,-1.09998c1.40005,0 2.7001,0.29999 3.90005,1c1.19995,0.59998 2.19995,1.59998 3,2.90002l4.89999,-2.90002c-1,-2.09998 -2.59995,-3.70001 -4.70004,-4.79999c-2.10001,-1.10004 -4.50003,-1.70001 -7.10001,-1.70001c-2.89999,0 -5.5,0.59998 -7.7999,1.79999c-2.30005,1.20001 -4,2.90002 -5.30005,5c-1.30008,2.10004 -1.90005,4.60004 -1.90005,7.40003c0,2.79999 0.59998,5.20001 1.90005,7.39996c1.30005,2.10004 3.09995,3.80005 5.30005,5c2.2999,1.20001 4.8999,1.80005 7.7999,1.80005c2.7001,0 5,-0.60004 7.10001,-1.70001c2.1001,-1.10004 3.6001,-2.70001 4.70004,-4.79999l-4.89999,-2.90002c-0.80005,1.29999 -1.80005,2.29999 -3,2.90002c-1.19995,0.59998 -2.5,1 -3.90005,1c-1.59995,0 -3,-0.40002 -4.2999,-1.10004c-1.30005,-0.70001 -2.30005,-1.70001 -3,-3c-0.7001,-1.29999 -1.10013,-2.89996 -1.10013,-4.59997c0,-1.79999 0.40002,-3.29999 1.10013,-4.60004c0.69995,-1.29999 1.69995,-2.29999 3,-3z" class="st0"/>
     <path id="svg_16" d="m323.97144,15.00668c-2.2001,0 -4.30005,0.29999 -6.40005,0.90002c-2,0.59997 -3.80005,1.5 -5.39999,2.59997l2.5,4.70001c1.09995,-0.90002 2.40002,-1.5 3.80005,-2c1.5,-0.5 3,-0.70001 4.5,-0.70001c2.39987,0 4.09998,0.5 5.2999,1.59998c1.2001,1.10004 1.7001,2.5 1.7001,4.40002l0,0.40002l-7.2001,0c-2.7999,0 -5.09995,0.39997 -6.7999,1.09998c-1.7001,0.70001 -2.90002,1.70001 -3.7001,3c-0.69995,1.20001 -1.09995,2.70001 -1.09995,4.20001c0,1.59998 0.39999,3 1.30005,4.29999c0.7999,1.29999 2.09995,2.29999 3.59998,3c1.59998,0.70001 3.40002,1.09998 5.49997,1.09998c2.50003,0 4.50003,-0.39996 6.10001,-1.39996c1.09995,-0.60004 2,-1.40002 2.59995,-2.40002l0,3.40002l6.09998,0l0,-16.40002c0,-4 -1.09998,-7 -3.2999,-8.89996c-2,-1.90002 -5.09998,-2.90002 -9.09998,-2.90002zm3.39987,22.70001c-1.30002,0.70001 -2.69992,1.09998 -4.30002,1.09998c-1.69998,0 -3,-0.29999 -3.8999,-1c-0.90005,-0.70001 -1.40005,-1.59998 -1.40005,-2.79999c0,-1.09998 0.40005,-2 1.2001,-2.70001c0.7999,-0.70001 2.2999,-1.09997 4.39987,-1.09997l6.80008,0l0,3.20001c-0.60001,1.5 -1.60001,2.5 -2.80008,3.29999z" class="st0"/>
     <polygon id="svg_17" points="355.0714111328125,12.506683349609375 367.0714111328125,12.506683349609375 367.0714111328125,43.10665988922119 373.871337890625,43.10665988922119 373.871337890625,12.506683349609375 385.871337890625,12.506683349609375 385.871337890625,6.706696510314941 355.0714111328125,6.706696510314941 " class="st0"/>
     <path id="svg_18" d="m410.77133,29.40671c0,1.79999 -0.2999,3.39996 -0.89999,4.59998c-0.60001,1.20001 -1.50003,2.20001 -2.69995,2.79999c-1.1001,0.60004 -2.5,0.90002 -4,0.90002c-2,0 -3.60001,-0.60004 -4.80008,-1.79999c-1.09998,-1.20001 -1.69992,-3.10004 -1.69992,-5.5l0,-15l-6.5,0l0,15.79999c0,2.79999 0.5,5.09997 1.5,6.89996c1,1.80005 2.3999,3.20001 4.19995,4.10004c1.80005,0.89996 3.89999,1.29999 6.19995,1.29999c2.1001,0 4.1001,-0.5 5.90015,-1.5c1.19995,-0.59998 2.19995,-1.5 3,-2.5l0,3.59998l6.19995,0l0,-27.69995l-6.5,0l0,14l0.09995,0z" class="st0"/>
     <path id="svg_19" d="m431.97144,19.40671l0,-4l-6.2001,0l0,27.69995l6.40005,0l0,-13.39996c0,-2.90002 0.69995,-5.10004 2.19992,-6.5c1.50003,-1.40003 3.40002,-2.10004 5.90002,-2.10004c0.2001,0 0.40005,0 0.7001,0c0.19995,0 0.5,0 0.69995,0.10004l0,-6.20001c-2.59998,0 -4.80005,0.5 -6.59998,1.5c-1.20007,0.70001 -2.30008,1.70001 -3.09998,2.90002z" class="st0"/>
     <path id="svg_20" d="m466.87134,16.80667c-2.10001,-1.20001 -4.50003,-1.79999 -7.19995,-1.79999c-2.80005,0 -5.19995,0.59998 -7.40005,1.79999c-2.20004,1.20001 -3.90002,2.90002 -5.09995,5c-1.19995,2.10004 -1.80008,4.60004 -1.80008,7.40003c0,2.79999 0.60013,5.20001 1.90002,7.39996c1.30005,2.10004 3,3.80005 5.40005,5c2.30005,1.20001 5,1.80005 8.09995,1.80005c2.40005,0 4.59998,-0.40002 6.5,-1.10004c1.90005,-0.79999 3.5,-1.89996 4.79996,-3.29999l-3.49991,-4.09998c-1,1 -2.09995,1.79999 -3.30005,2.29999s-2.69995,0.79999 -4.19992,0.79999c-1.80008,0 -3.40002,-0.40002 -4.80008,-1.09998c-1.39999,-0.70001 -2.5,-1.70001 -3.20004,-3c-0.49991,-0.80005 -0.79996,-1.70001 -0.8999,-2.70001l21.80005,0c0,-0.29999 0.09985,-0.60004 0.09985,-1c0,-0.40003 0,-0.70001 0,-0.90002c0,-2.89997 -0.59985,-5.5 -1.79996,-7.59998c-1.59995,-2 -3.2999,-3.70001 -5.39999,-4.90002zm-14.19995,7.40003c0.69992,-1.20001 1.59995,-2.20001 2.80005,-2.90002c1.19995,-0.70001 2.59998,-1 4.19995,-1c1.59995,0 3,0.29999 4.20007,1c1.19995,0.70001 2.09998,1.60003 2.79993,2.90002c0.5,0.89996 0.80005,1.79999 0.89999,2.79999l-15.69992,0c-0.00012,-1 0.29993,-2 0.79993,-2.79999z" class="st0"/>
     <path id="svg_21" d="m500.17139,31.10666c-0.60001,-1 -1.40005,-1.69995 -2.5,-2.29999c-1,-0.5 -2.10001,-1 -3.40005,-1.20001c-1.19992,-0.29999 -2.39987,-0.5 -3.69995,-0.69995c-1.20007,-0.20001 -2.30005,-0.40002 -3.39999,-0.60003c-1,-0.20001 -1.80008,-0.5 -2.40005,-1s-0.89987,-1 -0.89987,-1.89997c0,-0.90002 0.49985,-1.60004 1.49985,-2.20001c1,-0.60004 2.40002,-0.90002 4.40002,-0.90002c1.30008,0 2.7001,0.10003 4,0.40002c1.40005,0.29999 2.7001,0.79999 3.90005,1.59998l2.5,-4.89997c-1.29993,-0.80005 -2.90005,-1.40002 -4.80008,-1.80005c-1.89987,-0.39996 -3.79993,-0.59998 -5.59998,-0.59998c-2.5,0 -4.69992,0.40002 -6.5,1.09997c-1.7999,0.70001 -3.19992,1.70001 -4.19992,3c-1,1.30005 -1.50003,2.80005 -1.50003,4.5c0,1.60004 0.30008,2.90002 0.90005,3.90002c0.59998,1 1.40002,1.70001 2.40002,2.29999c1,0.60004 2.09998,1 3.39987,1.29999c1.2001,0.30005 2.5,0.5 3.7001,0.70001c1.19995,0.20001 2.2999,0.40002 3.39987,0.60004c1,0.19995 1.80008,0.5 2.40002,0.89996c0.59998,0.40002 0.90005,1 0.90005,1.70001c0,0.90002 -0.5,1.70001 -1.40005,2.20001c-0.90002,0.5 -2.39987,0.79999 -4.39987,0.79999c-1.80005,0 -3.50015,-0.29999 -5.20007,-0.79999c-1.69995,-0.5 -3.19995,-1.20001 -4.5,-1.90002l-2.5,4.90002c1.30005,0.89996 3,1.59998 5.09995,2.20001c2.10013,0.59998 4.30008,0.89996 6.7001,0.89996c2.59998,0 4.7999,-0.39996 6.69995,-1.09998c1.90002,-0.70001 3.30005,-1.70001 4.30005,-3c1,-1.29999 1.5,-2.79999 1.5,-4.5c0.09985,-1.40002 -0.2001,-2.60004 -0.80005,-3.60004z" class="st0"/>
    </g>
    <path id="svg_22" d="m11.57133,15.80667c-4.79999,0 -8.59998,3.10004 -8.59998,7c0,3.90002 3.90002,7 8.59998,7c4.80005,0 8.60004,-3.09998 8.60004,-7c0,-3.79999 -3.79999,-7 -8.60004,-7zm-1.39996,5.79999c0,0.70001 -0.5,1.30005 -1.20001,1.30005l-1.59998,0c-0.60004,0 -1.20001,-0.60003 -1.20001,-1.30005l0,-0.39996c0,-0.70001 0.5,-1.29999 1.20001,-1.29999l1.59998,0c0.59998,0 1.20001,0.59998 1.20001,1.29999l0,0.39996zm1.39996,5.40002c-0.69995,0 -1.29999,-0.59998 -1.29999,-1.40002c0,-0.79999 0.60004,-1.39996 1.29999,-1.39996c0.70001,0 1.30005,0.59997 1.30005,1.39996c0,0.80005 -0.60004,1.40002 -1.30005,1.40002zm5.10004,-5.40002c0,0.70001 -0.5,1.30005 -1.20001,1.30005l-1.59998,0c-0.60004,0 -1.20001,-0.60003 -1.20001,-1.30005l0,-0.39996c0,-0.70001 0.5,-1.29999 1.20001,-1.29999l1.59998,0c0.59998,0 1.20001,0.59998 1.20001,1.29999l0,0.39996zm31.20001,-15.19995l-6.80005,0c-0.89996,-2.90002 -4.79999,-4.5 -5.09998,-1.60004l0,1.60004l-5.40002,0c-1,-3 -5.09998,-5 -5.19995,-1.80005l0,1.80005l-19.70001,0c-0.70001,0 -1.29999,0.59998 -1.29999,1.39996l0,0c0,0.79999 0.59998,1.40002 1.29999,1.40002l19.70001,0l0,12.5c0,0.79999 -0.60004,1.5 -1.40002,1.5l-1.5,0c-0.90002,5 -4.70001,8.89996 -12,8.39996c-0.40002,0 -0.90002,0 -1.29999,-0.09998c3.20001,7.09998 10.29999,12 18.5,12c11.20001,0 20.29999,-9.09998 20.29999,-20.29999c0,-1.70001 -0.20001,-3.40003 -0.59998,-5c-0.20001,-0.70001 -1,-1 -1.5,-0.5l-4.70001,4l0,-12l0,-0.40003l6.70001,0c0.69995,0 1.29999,-0.59997 1.29999,-1.39996l0,0c0,-0.80005 -0.60004,-1.5 -1.29999,-1.5zm-11.90002,16c0,0.5 -0.40002,1 -0.90002,1l-1.69995,0l0,2.69995c0,0.80005 -0.10004,1.60004 -0.40002,2.40002l-0.20001,0.5c-0.29999,0.90002 -0.79999,1.79999 -1.59998,2.40002c-0.90002,0.79999 -2.20001,1.69995 -3.10004,2.29999c-0.5,0.29999 -1.19995,0.20001 -1.59998,-0.20001c0,0 0,0 0,0c-0.59998,-0.70001 -0.5,-1.79999 0.20001,-2.29999c2.5,-1.60004 4,-0.70001 3.89996,-8.60004l0,-13.29999l5.40002,0l0,13.10004z" class="st0"/>
   </g>
  </g>
 </g>
</svg>