<?xml version="1.0" encoding="utf-8"?>
<!-- Generator: Adobe Illustrator 26.1.0, SVG Export Plug-In . SVG Version: 6.00 Build 0)  -->
<svg version="1.1" id="Слой_1" xmlns="http://www.w3.org/2000/svg" xmlns:xlink="http://www.w3.org/1999/xlink" x="0px" y="0px"
	 viewBox="0 0 595.3 264" style="enable-background:new 0 0 595.3 264;" xml:space="preserve">
<style type="text/css">
	.st0{fill:#1D1D1B;}
	.st1{fill:#FFFFFF;}
</style>
<g>
	<g>
		<path class="st0" d="M117.2,74.7c1.2-1.1,2.5-2,4.1-2.7c1.6-0.6,3.3-0.9,5.2-0.9c1.9,0,3.6,0.4,5.2,1.1c1.6,0.7,3.1,1.8,4.5,3.2
			l4.4-4.1c-1.7-2-3.8-3.5-6.2-4.5c-2.5-1-5.2-1.5-8.2-1.5c-2.8,0-5.4,0.5-7.7,1.4c-2.4,0.9-4.4,2.2-6.2,3.9
			c-1.8,1.7-3.1,3.7-4.1,5.9c-1,2.3-1.5,4.7-1.5,7.5c0,2.7,0.5,5.2,1.5,7.5c1,2.3,2.3,4.2,4.1,5.9c1.7,1.7,3.8,3,6.2,3.9
			c2.4,0.9,4.9,1.4,7.7,1.4c3,0,5.8-0.5,8.2-1.6c2.5-1,4.5-2.6,6.2-4.6l-4.4-4.1c-1.4,1.5-2.8,2.5-4.5,3.2c-1.6,0.7-3.4,1.1-5.2,1.1
			c-1.9,0-3.6-0.3-5.2-0.9c-1.6-0.6-2.9-1.5-4.1-2.6c-1.2-1.1-2.1-2.5-2.7-4.1c-0.7-1.6-1-3.3-1-5.1c0-1.9,0.3-3.6,1-5.1
			C115.2,77.2,116.1,75.9,117.2,74.7z"/>
		<path class="st0" d="M166.7,75.8c-2.2-1.2-4.8-1.8-7.7-1.8c-2.8,0-5.4,0.6-7.6,1.8c-2.2,1.2-4,2.9-5.2,5c-1.3,2.1-1.9,4.6-1.9,7.4
			c0,2.7,0.6,5.2,1.9,7.3c1.3,2.1,3,3.8,5.3,5.1c2.2,1.2,4.8,1.8,7.6,1.8c2.8,0,5.4-0.6,7.6-1.8c2.3-1.2,4-2.9,5.3-5
			c1.3-2.1,1.9-4.6,1.9-7.4c0-2.8-0.6-5.3-1.9-7.4C170.6,78.7,168.9,77.1,166.7,75.8z M166.2,92.8c-0.7,1.3-1.7,2.4-2.9,3.1
			c-1.2,0.7-2.7,1.1-4.3,1.1c-1.5,0-2.9-0.4-4.2-1.1c-1.2-0.7-2.2-1.7-3-3.1c-0.7-1.3-1.1-2.9-1.1-4.6c0-1.8,0.4-3.3,1.1-4.6
			c0.7-1.3,1.7-2.3,3-3c1.2-0.7,2.7-1.1,4.2-1.1c1.6,0,3,0.4,4.2,1.1c1.2,0.7,2.2,1.7,2.9,3c0.7,1.3,1.1,2.8,1.1,4.6
			C167.3,90,166.9,91.5,166.2,92.8z"/>
		<path class="st0" d="M197.8,87.8c-1-0.5-2.1-1-3.4-1.2c-1.2-0.3-2.4-0.5-3.7-0.7c-1.2-0.2-2.3-0.4-3.4-0.6c-1-0.2-1.8-0.5-2.4-1
			c-0.6-0.4-0.9-1-0.9-1.9c0-0.9,0.5-1.6,1.5-2.2c1-0.6,2.4-0.9,4.4-0.9c1.3,0,2.7,0.1,4,0.4c1.4,0.3,2.7,0.8,4,1.6l2.5-4.9
			c-1.3-0.8-2.9-1.4-4.8-1.8c-1.9-0.4-3.8-0.6-5.6-0.6c-2.5,0-4.7,0.4-6.5,1.1c-1.8,0.7-3.2,1.7-4.2,3c-1,1.3-1.5,2.8-1.5,4.5
			c0,1.6,0.3,2.9,0.9,3.9c0.6,1,1.4,1.7,2.4,2.3c1,0.6,2.1,1,3.4,1.3c1.2,0.3,2.5,0.5,3.7,0.7c1.2,0.2,2.3,0.4,3.4,0.6
			c1,0.2,1.8,0.5,2.4,0.9c0.6,0.4,0.9,1,0.9,1.7c0,0.9-0.5,1.7-1.4,2.2c-0.9,0.5-2.4,0.8-4.4,0.8c-1.8,0-3.5-0.3-5.2-0.8
			c-1.7-0.5-3.2-1.2-4.5-1.9l-2.5,4.9c1.3,0.9,3,1.6,5.1,2.2c2.1,0.6,4.3,0.9,6.7,0.9c2.6,0,4.8-0.4,6.7-1.1c1.9-0.7,3.3-1.7,4.3-3
			c1-1.3,1.5-2.8,1.5-4.5c0-1.6-0.3-2.8-0.9-3.8C199.6,89.1,198.8,88.4,197.8,87.8z"/>
		<path class="st0" d="M218.1,97.1c-1.2,0-2.2-0.4-2.9-1.1c-0.7-0.7-1-1.7-1-3.1V79.8h7.5v-5.2h-7.5v-6.3h-6.4v6.3h-4.6v5.2h4.6
			v13.4c0,3,0.8,5.4,2.5,6.9c1.7,1.6,4,2.4,7.1,2.4c1.1,0,2.3-0.2,3.4-0.5c1.1-0.3,2.1-0.8,2.9-1.4l-1.9-4.6
			C220.7,96.7,219.5,97.1,218.1,97.1z"/>
		<path class="st0" d="M239.4,74c-2.2,0-4.3,0.3-6.4,0.9c-2,0.6-3.8,1.5-5.4,2.6l2.5,4.7c1.1-0.9,2.4-1.5,3.8-2
			c1.5-0.5,3-0.7,4.5-0.7c2.4,0,4.1,0.5,5.3,1.6c1.2,1.1,1.7,2.5,1.7,4.4v0.4h-7.2c-2.8,0-5.1,0.4-6.8,1.1c-1.7,0.7-2.9,1.7-3.7,3
			c-0.7,1.2-1.1,2.7-1.1,4.2c0,1.6,0.4,3,1.3,4.3c0.8,1.3,2.1,2.3,3.6,3c1.6,0.7,3.4,1.1,5.5,1.1c2.5,0,4.5-0.4,6.1-1.4
			c1.1-0.6,2-1.4,2.6-2.4v3.4h6.1V85.8c0-4-1.1-7-3.3-8.9C246.6,75,243.5,74,239.4,74z M242.8,96.7c-1.3,0.7-2.7,1.1-4.3,1.1
			c-1.7,0-3-0.3-3.9-1c-0.9-0.7-1.4-1.6-1.4-2.8c0-1.1,0.4-2,1.2-2.7c0.8-0.7,2.3-1.1,4.4-1.1h6.8v3.2
			C245,94.9,244.1,95.9,242.8,96.7z"/>
		<path class="st0" d="M298.5,90c2.3-1,4.1-2.5,5.3-4.4c1.2-1.9,1.9-4.2,1.9-6.9c0-2.7-0.6-5-1.9-7c-1.2-1.9-3-3.4-5.3-4.4
			c-2.3-1-5.1-1.5-8.3-1.5h-15v36.4h6.8V91.5h8.2c0.5,0,1,0,1.4,0l7.4,10.6h7.3l-8.4-11.9C298.1,90.1,298.3,90,298.5,90z
			 M296.6,73.3c1.5,1.3,2.3,3,2.3,5.3c0,2.3-0.8,4.1-2.3,5.4c-1.5,1.3-3.8,1.9-6.7,1.9H282V71.5h7.9
			C292.9,71.5,295.1,72.1,296.6,73.3z"/>
		<path class="st0" d="M315.9,62c-1.2,0-2.2,0.4-3,1.1c-0.8,0.8-1.2,1.7-1.2,2.7c0,1.1,0.4,2,1.2,2.8c0.8,0.8,1.8,1.1,3,1.1
			c1.2,0,2.3-0.4,3-1.2c0.8-0.8,1.1-1.7,1.1-2.8c0-1.1-0.4-2-1.2-2.7C318.1,62.4,317.1,62,315.9,62z"/>
		<rect x="312.6" y="74.4" class="st0" width="6.4" height="27.7"/>
		<path class="st0" d="M336,80.6c1.3-0.7,2.7-1.1,4.3-1.1c1.4,0,2.7,0.3,3.9,1c1.2,0.6,2.2,1.6,3,2.9l4.9-2.9
			c-1-2.1-2.6-3.7-4.7-4.8c-2.1-1.1-4.5-1.7-7.1-1.7c-2.9,0-5.5,0.6-7.8,1.8c-2.3,1.2-4,2.9-5.3,5c-1.3,2.1-1.9,4.6-1.9,7.4
			c0,2.8,0.6,5.2,1.9,7.4c1.3,2.1,3.1,3.8,5.3,5c2.3,1.2,4.9,1.8,7.8,1.8c2.7,0,5-0.6,7.1-1.7c2.1-1.1,3.6-2.7,4.7-4.8l-4.9-2.9
			c-0.8,1.3-1.8,2.3-3,2.9c-1.2,0.6-2.5,1-3.9,1c-1.6,0-3-0.4-4.3-1.1c-1.3-0.7-2.3-1.7-3-3c-0.7-1.3-1.1-2.9-1.1-4.6
			c0-1.8,0.4-3.3,1.1-4.6C333.7,82.3,334.7,81.3,336,80.6z"/>
		<path class="st0" d="M368.5,74c-2.2,0-4.3,0.3-6.4,0.9c-2,0.6-3.8,1.5-5.4,2.6l2.5,4.7c1.1-0.9,2.4-1.5,3.8-2
			c1.5-0.5,3-0.7,4.5-0.7c2.4,0,4.1,0.5,5.3,1.6c1.2,1.1,1.7,2.5,1.7,4.4v0.4h-7.2c-2.8,0-5.1,0.4-6.8,1.1c-1.7,0.7-2.9,1.7-3.7,3
			c-0.7,1.2-1.1,2.7-1.1,4.2c0,1.6,0.4,3,1.3,4.3c0.8,1.3,2.1,2.3,3.6,3c1.6,0.7,3.4,1.1,5.5,1.1c2.5,0,4.5-0.4,6.1-1.4
			c1.1-0.6,2-1.4,2.6-2.4v3.4h6.1V85.8c0-4-1.1-7-3.3-8.9C375.6,75,372.5,74,368.5,74z M371.9,96.7c-1.3,0.7-2.7,1.1-4.3,1.1
			c-1.7,0-3-0.3-3.9-1c-0.9-0.7-1.4-1.6-1.4-2.8c0-1.1,0.4-2,1.2-2.7c0.8-0.7,2.3-1.1,4.4-1.1h6.8v3.2
			C374.1,94.9,373.1,95.9,371.9,96.7z"/>
		<polygon class="st0" points="399.6,71.5 411.6,71.5 411.6,102.1 418.4,102.1 418.4,71.5 430.4,71.5 430.4,65.7 399.6,65.7 		"/>
		<path class="st0" d="M455.3,88.4c0,1.8-0.3,3.4-0.9,4.6c-0.6,1.2-1.5,2.2-2.7,2.8c-1.1,0.6-2.5,0.9-4,0.9c-2,0-3.6-0.6-4.8-1.8
			c-1.1-1.2-1.7-3.1-1.7-5.5v-15h-6.5v15.8c0,2.8,0.5,5.1,1.5,6.9c1,1.8,2.4,3.2,4.2,4.1c1.8,0.9,3.9,1.3,6.2,1.3
			c2.1,0,4.1-0.5,5.9-1.5c1.2-0.6,2.2-1.5,3-2.5v3.6h6.2V74.4h-6.5V88.4z"/>
		<path class="st0" d="M476.5,78.4v-4h-6.2v27.7h6.4V88.7c0-2.9,0.7-5.1,2.2-6.5c1.5-1.4,3.4-2.1,5.9-2.1c0.2,0,0.4,0,0.7,0
			c0.2,0,0.5,0,0.7,0.1V74c-2.6,0-4.8,0.5-6.6,1.5C478.4,76.2,477.3,77.2,476.5,78.4z"/>
		<path class="st0" d="M511.4,75.8c-2.1-1.2-4.5-1.8-7.2-1.8c-2.8,0-5.2,0.6-7.4,1.8c-2.2,1.2-3.9,2.9-5.1,5
			c-1.2,2.1-1.8,4.6-1.8,7.4c0,2.8,0.6,5.2,1.9,7.4c1.3,2.1,3,3.8,5.4,5c2.3,1.2,5,1.8,8.1,1.8c2.4,0,4.6-0.4,6.5-1.1
			c1.9-0.8,3.5-1.9,4.8-3.3l-3.5-4.1c-1,1-2.1,1.8-3.3,2.3s-2.7,0.8-4.2,0.8c-1.8,0-3.4-0.4-4.8-1.1c-1.4-0.7-2.5-1.7-3.2-3
			c-0.5-0.8-0.8-1.7-0.9-2.7h21.8c0-0.3,0.1-0.6,0.1-1c0-0.4,0-0.7,0-0.9c0-2.9-0.6-5.5-1.8-7.6C515.2,78.7,513.5,77,511.4,75.8z
			 M497.2,83.2c0.7-1.2,1.6-2.2,2.8-2.9c1.2-0.7,2.6-1,4.2-1c1.6,0,3,0.3,4.2,1c1.2,0.7,2.1,1.6,2.8,2.9c0.5,0.9,0.8,1.8,0.9,2.8
			h-15.7C496.4,85,496.7,84,497.2,83.2z"/>
		<path class="st0" d="M544.7,90.1c-0.6-1-1.4-1.7-2.5-2.3c-1-0.5-2.1-1-3.4-1.2c-1.2-0.3-2.4-0.5-3.7-0.7c-1.2-0.2-2.3-0.4-3.4-0.6
			c-1-0.2-1.8-0.5-2.4-1s-0.9-1-0.9-1.9c0-0.9,0.5-1.6,1.5-2.2c1-0.6,2.4-0.9,4.4-0.9c1.3,0,2.7,0.1,4,0.4c1.4,0.3,2.7,0.8,3.9,1.6
			l2.5-4.9c-1.3-0.8-2.9-1.4-4.8-1.8c-1.9-0.4-3.8-0.6-5.6-0.6c-2.5,0-4.7,0.4-6.5,1.1c-1.8,0.7-3.2,1.7-4.2,3
			c-1,1.3-1.5,2.8-1.5,4.5c0,1.6,0.3,2.9,0.9,3.9c0.6,1,1.4,1.7,2.4,2.3c1,0.6,2.1,1,3.4,1.3c1.2,0.3,2.5,0.5,3.7,0.7
			c1.2,0.2,2.3,0.4,3.4,0.6c1,0.2,1.8,0.5,2.4,0.9c0.6,0.4,0.9,1,0.9,1.7c0,0.9-0.5,1.7-1.4,2.2c-0.9,0.5-2.4,0.8-4.4,0.8
			c-1.8,0-3.5-0.3-5.2-0.8c-1.7-0.5-3.2-1.2-4.5-1.9l-2.5,4.9c1.3,0.9,3,1.6,5.1,2.2c2.1,0.6,4.3,0.9,6.7,0.9c2.6,0,4.8-0.4,6.7-1.1
			c1.9-0.7,3.3-1.7,4.3-3c1-1.3,1.5-2.8,1.5-4.5C545.6,92.3,545.3,91.1,544.7,90.1z"/>
	</g>
	<path class="st0" d="M56.1,74.8c-4.8,0-8.6,3.1-8.6,7c0,3.9,3.9,7,8.6,7c4.8,0,8.6-3.1,8.6-7C64.7,78,60.9,74.8,56.1,74.8z
		 M54.7,80.6c0,0.7-0.5,1.3-1.2,1.3h-1.6c-0.6,0-1.2-0.6-1.2-1.3v-0.4c0-0.7,0.5-1.3,1.2-1.3h1.6c0.6,0,1.2,0.6,1.2,1.3V80.6z
		 M56.1,86c-0.7,0-1.3-0.6-1.3-1.4c0-0.8,0.6-1.4,1.3-1.4c0.7,0,1.3,0.6,1.3,1.4C57.4,85.4,56.8,86,56.1,86z M61.2,80.6
		c0,0.7-0.5,1.3-1.2,1.3h-1.6c-0.6,0-1.2-0.6-1.2-1.3v-0.4c0-0.7,0.5-1.3,1.2-1.3h1.6c0.6,0,1.2,0.6,1.2,1.3V80.6z M92.4,65.4h-6.8
		c-0.9-2.9-4.8-4.5-5.1-1.6v1.6h-5.4c-1-3-5.1-5-5.2-1.8v1.8H50.2c-0.7,0-1.3,0.6-1.3,1.4v0c0,0.8,0.6,1.4,1.3,1.4h19.7v12.5
		c0,0.8-0.6,1.5-1.4,1.5H67c-0.9,5-4.7,8.9-12,8.4c-0.4,0-0.9,0-1.3-0.1c3.2,7.1,10.3,12,18.5,12c11.2,0,20.3-9.1,20.3-20.3
		c0-1.7-0.2-3.4-0.6-5c-0.2-0.7-1-1-1.5-0.5l-4.7,4V68.7l0-0.4h6.7c0.7,0,1.3-0.6,1.3-1.4v0C93.7,66.1,93.1,65.4,92.4,65.4z
		 M80.5,81.4c0,0.5-0.4,1-0.9,1h-1.7l0,2.7c0,0.8-0.1,1.6-0.4,2.4l-0.2,0.5c-0.3,0.9-0.8,1.8-1.6,2.4c-0.9,0.8-2.2,1.7-3.1,2.3
		c-0.5,0.3-1.2,0.2-1.6-0.2c0,0,0,0,0,0c-0.6-0.7-0.5-1.8,0.2-2.3c2.5-1.6,4-0.7,3.9-8.6V68.3h5.4V81.4z"/>
</g>
<g>
	<g>
		<path class="st1" d="M119.6,168.1c1.2-1.1,2.5-2,4.1-2.7c1.6-0.6,3.3-0.9,5.2-0.9c1.9,0,3.6,0.4,5.2,1.1c1.6,0.7,3.1,1.8,4.5,3.2
			l4.4-4.1c-1.7-2-3.8-3.5-6.2-4.5c-2.5-1-5.2-1.5-8.2-1.5c-2.8,0-5.4,0.5-7.7,1.4c-2.4,0.9-4.4,2.2-6.2,3.9
			c-1.8,1.7-3.1,3.7-4.1,5.9c-1,2.3-1.5,4.7-1.5,7.5c0,2.7,0.5,5.2,1.5,7.5c1,2.3,2.3,4.2,4.1,5.9c1.7,1.7,3.8,3,6.2,3.9
			c2.4,0.9,4.9,1.4,7.7,1.4c3,0,5.8-0.5,8.2-1.6c2.5-1,4.5-2.6,6.2-4.6l-4.4-4.1c-1.4,1.5-2.8,2.5-4.5,3.2c-1.6,0.7-3.4,1.1-5.2,1.1
			c-1.9,0-3.6-0.3-5.2-0.9c-1.6-0.6-2.9-1.5-4.1-2.6c-1.2-1.1-2.1-2.5-2.7-4.1c-0.7-1.6-1-3.3-1-5.1c0-1.9,0.3-3.6,1-5.1
			C117.5,170.6,118.4,169.3,119.6,168.1z"/>
		<path class="st1" d="M169,169.3c-2.2-1.2-4.8-1.8-7.7-1.8c-2.8,0-5.4,0.6-7.6,1.8c-2.2,1.2-4,2.9-5.2,5c-1.3,2.1-1.9,4.6-1.9,7.4
			c0,2.7,0.6,5.2,1.9,7.3c1.3,2.1,3,3.8,5.3,5.1c2.2,1.2,4.8,1.8,7.6,1.8c2.8,0,5.4-0.6,7.6-1.8c2.3-1.2,4-2.9,5.3-5
			c1.3-2.1,1.9-4.6,1.9-7.4c0-2.8-0.6-5.3-1.9-7.4C173,172.2,171.2,170.5,169,169.3z M168.5,186.2c-0.7,1.3-1.7,2.4-2.9,3.1
			c-1.2,0.7-2.7,1.1-4.3,1.1c-1.5,0-2.9-0.4-4.2-1.1c-1.2-0.7-2.2-1.7-3-3.1c-0.7-1.3-1.1-2.9-1.1-4.6c0-1.8,0.4-3.3,1.1-4.6
			c0.7-1.3,1.7-2.3,3-3c1.2-0.7,2.7-1.1,4.2-1.1c1.6,0,3,0.4,4.2,1.1c1.2,0.7,2.2,1.7,2.9,3c0.7,1.3,1.1,2.8,1.1,4.6
			C169.6,183.4,169.3,184.9,168.5,186.2z"/>
		<path class="st1" d="M200.1,181.3c-1-0.5-2.1-1-3.4-1.2c-1.2-0.3-2.4-0.5-3.7-0.7c-1.2-0.2-2.3-0.4-3.4-0.6c-1-0.2-1.8-0.5-2.4-1
			c-0.6-0.4-0.9-1-0.9-1.9c0-0.9,0.5-1.6,1.5-2.2c1-0.6,2.4-0.9,4.4-0.9c1.3,0,2.7,0.1,4,0.4c1.4,0.3,2.7,0.8,4,1.6l2.5-4.9
			c-1.3-0.8-2.9-1.4-4.8-1.8c-1.9-0.4-3.8-0.6-5.6-0.6c-2.5,0-4.7,0.4-6.5,1.1c-1.8,0.7-3.2,1.7-4.2,3c-1,1.3-1.5,2.8-1.5,4.5
			c0,1.6,0.3,2.9,0.9,3.9c0.6,1,1.4,1.7,2.4,2.3c1,0.6,2.1,1,3.4,1.3c1.2,0.3,2.5,0.5,3.7,0.7c1.2,0.2,2.3,0.4,3.4,0.6
			c1,0.2,1.8,0.5,2.4,0.9c0.6,0.4,0.9,1,0.9,1.7c0,0.9-0.5,1.7-1.4,2.2c-0.9,0.5-2.4,0.8-4.4,0.8c-1.8,0-3.5-0.3-5.2-0.8
			c-1.7-0.5-3.2-1.2-4.5-1.9l-2.5,4.9c1.3,0.9,3,1.6,5.1,2.2c2.1,0.6,4.3,0.9,6.7,0.9c2.6,0,4.8-0.4,6.7-1.1c1.9-0.7,3.3-1.7,4.3-3
			c1-1.3,1.5-2.8,1.5-4.5c0-1.6-0.3-2.8-0.9-3.8C202,182.5,201.2,181.8,200.1,181.3z"/>
		<path class="st1" d="M220.4,190.5c-1.2,0-2.2-0.4-2.9-1.1c-0.7-0.7-1-1.7-1-3.1v-13.2h7.5V168h-7.5v-6.3H210v6.3h-4.6v5.2h4.6
			v13.4c0,3,0.8,5.4,2.5,6.9c1.7,1.6,4,2.4,7.1,2.4c1.1,0,2.3-0.2,3.4-0.5c1.1-0.3,2.1-0.8,2.9-1.4l-1.9-4.6
			C223,190.1,221.8,190.5,220.4,190.5z"/>
		<path class="st1" d="M241.8,167.4c-2.2,0-4.3,0.3-6.4,0.9c-2,0.6-3.8,1.5-5.4,2.6l2.5,4.7c1.1-0.9,2.4-1.5,3.8-2
			c1.5-0.5,3-0.7,4.5-0.7c2.4,0,4.1,0.5,5.3,1.6c1.2,1.1,1.7,2.5,1.7,4.4v0.4h-7.2c-2.8,0-5.1,0.4-6.8,1.1c-1.7,0.7-2.9,1.7-3.7,3
			c-0.7,1.2-1.1,2.7-1.1,4.2c0,1.6,0.4,3,1.3,4.3c0.8,1.3,2.1,2.3,3.6,3c1.6,0.7,3.4,1.1,5.5,1.1c2.5,0,4.5-0.4,6.1-1.4
			c1.1-0.6,2-1.4,2.6-2.4v3.4h6.1v-16.3c0-4-1.1-7-3.3-8.9C249,168.4,245.8,167.4,241.8,167.4z M245.2,190.1
			c-1.3,0.7-2.7,1.1-4.3,1.1c-1.7,0-3-0.3-3.9-1c-0.9-0.7-1.4-1.6-1.4-2.8c0-1.1,0.4-2,1.2-2.7c0.8-0.7,2.3-1.1,4.4-1.1h6.8v3.2
			C247.4,188.3,246.5,189.3,245.2,190.1z"/>
		<path class="st1" d="M300.8,183.4c2.3-1,4.1-2.5,5.3-4.4c1.2-1.9,1.9-4.2,1.9-6.9c0-2.7-0.6-5-1.9-7c-1.2-1.9-3-3.4-5.3-4.4
			c-2.3-1-5.1-1.5-8.3-1.5h-15v36.4h6.8v-10.6h8.2c0.5,0,1,0,1.4,0l7.4,10.6h7.3l-8.4-11.9C300.5,183.5,300.7,183.4,300.8,183.4z
			 M299,166.8c1.5,1.3,2.3,3,2.3,5.3c0,2.3-0.8,4.1-2.3,5.4c-1.5,1.3-3.8,1.9-6.7,1.9h-7.9v-14.5h7.9
			C295.2,164.9,297.5,165.5,299,166.8z"/>
		<path class="st1" d="M318.2,155.4c-1.2,0-2.2,0.4-3,1.1c-0.8,0.8-1.2,1.7-1.2,2.7c0,1.1,0.4,2,1.2,2.8c0.8,0.8,1.8,1.1,3,1.1
			c1.2,0,2.3-0.4,3-1.2c0.8-0.8,1.1-1.7,1.1-2.8c0-1.1-0.4-2-1.2-2.7C320.4,155.8,319.4,155.4,318.2,155.4z"/>
		<rect x="315" y="167.8" class="st1" width="6.4" height="27.7"/>
		<path class="st1" d="M338.4,174c1.3-0.7,2.7-1.1,4.3-1.1c1.4,0,2.7,0.3,3.9,1c1.2,0.6,2.2,1.6,3,2.9l4.9-2.9
			c-1-2.1-2.6-3.7-4.7-4.8c-2.1-1.1-4.5-1.7-7.1-1.7c-2.9,0-5.5,0.6-7.8,1.8c-2.3,1.2-4,2.9-5.3,5c-1.3,2.1-1.9,4.6-1.9,7.4
			c0,2.8,0.6,5.2,1.9,7.4c1.3,2.1,3.1,3.8,5.3,5c2.3,1.2,4.9,1.8,7.8,1.8c2.7,0,5-0.6,7.1-1.7c2.1-1.1,3.6-2.7,4.7-4.8l-4.9-2.9
			c-0.8,1.3-1.8,2.3-3,2.9c-1.2,0.6-2.5,1-3.9,1c-1.6,0-3-0.4-4.3-1.1c-1.3-0.7-2.3-1.7-3-3c-0.7-1.3-1.1-2.9-1.1-4.6
			c0-1.8,0.4-3.3,1.1-4.6C336.1,175.7,337.1,174.7,338.4,174z"/>
		<path class="st1" d="M370.8,167.4c-2.2,0-4.3,0.3-6.4,0.9c-2,0.6-3.8,1.5-5.4,2.6l2.5,4.7c1.1-0.9,2.4-1.5,3.8-2
			c1.5-0.5,3-0.7,4.5-0.7c2.4,0,4.1,0.5,5.3,1.6c1.2,1.1,1.7,2.5,1.7,4.4v0.4h-7.2c-2.8,0-5.1,0.4-6.8,1.1c-1.7,0.7-2.9,1.7-3.7,3
			c-0.7,1.2-1.1,2.7-1.1,4.2c0,1.6,0.4,3,1.3,4.3c0.8,1.3,2.1,2.3,3.6,3c1.6,0.7,3.4,1.1,5.5,1.1c2.5,0,4.5-0.4,6.1-1.4
			c1.1-0.6,2-1.4,2.6-2.4v3.4h6.1v-16.3c0-4-1.1-7-3.3-8.9C378,168.4,374.9,167.4,370.8,167.4z M374.2,190.1
			c-1.3,0.7-2.7,1.1-4.3,1.1c-1.7,0-3-0.3-3.9-1c-0.9-0.7-1.4-1.6-1.4-2.8c0-1.1,0.4-2,1.2-2.7c0.8-0.7,2.3-1.1,4.4-1.1h6.8v3.2
			C376.4,188.3,375.5,189.3,374.2,190.1z"/>
		<polygon class="st1" points="401.9,164.9 414,164.9 414,195.5 420.7,195.5 420.7,164.9 432.8,164.9 432.8,159.1 401.9,159.1 		"/>
		<path class="st1" d="M457.6,181.8c0,1.8-0.3,3.4-0.9,4.6c-0.6,1.2-1.5,2.2-2.7,2.8c-1.1,0.6-2.5,0.9-4,0.9c-2,0-3.6-0.6-4.8-1.8
			c-1.1-1.2-1.7-3.1-1.7-5.5v-15H437v15.8c0,2.8,0.5,5.1,1.5,6.9c1,1.8,2.4,3.2,4.2,4.1c1.8,0.9,3.9,1.3,6.2,1.3
			c2.1,0,4.1-0.5,5.9-1.5c1.2-0.6,2.2-1.5,3-2.5v3.6h6.2v-27.7h-6.5V181.8z"/>
		<path class="st1" d="M478.9,171.8v-4h-6.2v27.7h6.4v-13.4c0-2.9,0.7-5.1,2.2-6.5c1.5-1.4,3.4-2.1,5.9-2.1c0.2,0,0.4,0,0.7,0
			c0.2,0,0.5,0,0.7,0.1v-6.2c-2.6,0-4.8,0.5-6.6,1.5C480.7,169.6,479.7,170.6,478.9,171.8z"/>
		<path class="st1" d="M513.8,169.2c-2.1-1.2-4.5-1.8-7.2-1.8c-2.8,0-5.2,0.6-7.4,1.8c-2.2,1.2-3.9,2.9-5.1,5
			c-1.2,2.1-1.8,4.6-1.8,7.4c0,2.8,0.6,5.2,1.9,7.4c1.3,2.1,3,3.8,5.4,5c2.3,1.2,5,1.8,8.1,1.8c2.4,0,4.6-0.4,6.5-1.1
			c1.9-0.8,3.5-1.9,4.8-3.3l-3.5-4.1c-1,1-2.1,1.8-3.3,2.3c-1.2,0.5-2.7,0.8-4.2,0.8c-1.8,0-3.4-0.4-4.8-1.1c-1.4-0.7-2.5-1.7-3.2-3
			c-0.5-0.8-0.8-1.7-0.9-2.7h21.8c0-0.3,0.1-0.6,0.1-1c0-0.4,0-0.7,0-0.9c0-2.9-0.6-5.5-1.8-7.6
			C517.5,172.1,515.9,170.4,513.8,169.2z M499.5,176.6c0.7-1.2,1.6-2.2,2.8-2.9c1.2-0.7,2.6-1,4.2-1c1.6,0,3,0.3,4.2,1
			c1.2,0.7,2.1,1.6,2.8,2.9c0.5,0.9,0.8,1.8,0.9,2.8h-15.7C498.8,178.4,499.1,177.4,499.5,176.6z"/>
		<path class="st1" d="M547,183.5c-0.6-1-1.4-1.7-2.5-2.3c-1-0.5-2.1-1-3.4-1.2c-1.2-0.3-2.4-0.5-3.7-0.7c-1.2-0.2-2.3-0.4-3.4-0.6
			c-1-0.2-1.8-0.5-2.4-1c-0.6-0.4-0.9-1-0.9-1.9c0-0.9,0.5-1.6,1.5-2.2c1-0.6,2.4-0.9,4.4-0.9c1.3,0,2.7,0.1,4,0.4
			c1.4,0.3,2.7,0.8,3.9,1.6l2.5-4.9c-1.3-0.8-2.9-1.4-4.8-1.8c-1.9-0.4-3.8-0.6-5.6-0.6c-2.5,0-4.7,0.4-6.5,1.1
			c-1.8,0.7-3.2,1.7-4.2,3c-1,1.3-1.5,2.8-1.5,4.5c0,1.6,0.3,2.9,0.9,3.9c0.6,1,1.4,1.7,2.4,2.3c1,0.6,2.1,1,3.4,1.3
			c1.2,0.3,2.5,0.5,3.7,0.7c1.2,0.2,2.3,0.4,3.4,0.6c1,0.2,1.8,0.5,2.4,0.9c0.6,0.4,0.9,1,0.9,1.7c0,0.9-0.5,1.7-1.4,2.2
			c-0.9,0.5-2.4,0.8-4.4,0.8c-1.8,0-3.5-0.3-5.2-0.8c-1.7-0.5-3.2-1.2-4.5-1.9l-2.5,4.9c1.3,0.9,3,1.6,5.1,2.2
			c2.1,0.6,4.3,0.9,6.7,0.9c2.6,0,4.8-0.4,6.7-1.1c1.9-0.7,3.3-1.7,4.3-3c1-1.3,1.5-2.8,1.5-4.5C548,185.7,547.6,184.5,547,183.5z"
			/>
	</g>
	<path class="st1" d="M58.4,168.2c-4.8,0-8.6,3.1-8.6,7c0,3.9,3.9,7,8.6,7c4.8,0,8.6-3.1,8.6-7C67.1,171.4,63.2,168.2,58.4,168.2z
		 M57,174c0,0.7-0.5,1.3-1.2,1.3h-1.6c-0.6,0-1.2-0.6-1.2-1.3v-0.4c0-0.7,0.5-1.3,1.2-1.3h1.6c0.6,0,1.2,0.6,1.2,1.3V174z
		 M58.5,179.4c-0.7,0-1.3-0.6-1.3-1.4c0-0.8,0.6-1.4,1.3-1.4c0.7,0,1.3,0.6,1.3,1.4C59.8,178.8,59.2,179.4,58.5,179.4z M63.6,174
		c0,0.7-0.5,1.3-1.2,1.3h-1.6c-0.6,0-1.2-0.6-1.2-1.3v-0.4c0-0.7,0.5-1.3,1.2-1.3h1.6c0.6,0,1.2,0.6,1.2,1.3V174z M94.7,158.8h-6.8
		c-0.9-2.9-4.8-4.5-5.1-1.6v1.6h-5.4c-1-3-5.1-5-5.2-1.8v1.8H52.6c-0.7,0-1.3,0.6-1.3,1.4l0,0c0,0.8,0.6,1.4,1.3,1.4h19.7v12.5
		c0,0.8-0.6,1.5-1.4,1.5h-1.5c-0.9,5-4.7,8.9-12,8.4c-0.4,0-0.9,0-1.3-0.1c3.2,7.1,10.3,12,18.5,12c11.2,0,20.3-9.1,20.3-20.3
		c0-1.7-0.2-3.4-0.6-5c-0.2-0.7-1-1-1.5-0.5l-4.7,4v-12.1l0-0.4h6.7c0.7,0,1.3-0.6,1.3-1.4l0,0C96,159.5,95.4,158.8,94.7,158.8z
		 M82.9,174.8c0,0.5-0.4,1-0.9,1h-1.7l0,2.7c0,0.8-0.1,1.6-0.4,2.4l-0.2,0.5c-0.3,0.9-0.8,1.8-1.6,2.4c-0.9,0.8-2.2,1.7-3.1,2.3
		c-0.5,0.3-1.2,0.2-1.6-0.2c0,0,0,0,0,0c-0.6-0.7-0.5-1.8,0.2-2.3c2.5-1.6,4-0.7,3.9-8.6v-13.1h5.4V174.8z"/>
</g>
</svg>
